Commissioner-HairWedgeItalic.ufo
<glyph name="hyphen" format="2">
  <advance width="420"/>
  <unicode hex="002D"/>
  <outline>
    <contour>
      <point x="77" y="278" type="line"/>
      <point x="128" y="279"/>
      <point x="186" y="280"/>
      <point x="217" y="280" type="curve"/>
      <point x="248" y="280"/>
      <point x="306" y="279"/>
      <point x="357" y="278" type="curve"/>
      <point x="364" y="312" type="line"/>
      <point x="313" y="311"/>
      <point x="254" y="310"/>
      <point x="223" y="310" type="curve"/>
      <point x="192" y="310"/>
      <point x="135" y="311"/>
      <point x="84" y="312" type="curve"/>
    </contour>
  </outline>
</glyph>
<glyph name="slash" format="2">
  <advance width="438"/>
  <unicode hex="002F"/>
  <outline>
    <contour>
      <point x="-14" y="0" type="curve"/>
      <point x="26" y="0" type="line"/>
      <point x="74" y="74"/>
      <point x="115" y="136"/>
      <point x="175" y="228" type="curve"/>
      <point x="338" y="474" type="line"/>
      <point x="401" y="569"/>
      <point x="444" y="633"/>
      <point x="498" y="713" type="curve"/>
      <point x="458" y="713" type="line"/>
      <point x="408" y="637"/>
      <point x="366" y="572"/>
      <point x="303" y="476" type="curve"/>
      <point x="139" y="228" type="line"/>
      <point x="77" y="136"/>
      <point x="35" y="73"/>
    </contour>
  </outline>
</glyph>
<glyph name="four" format="2">
  <advance width="589"/>
  <unicode hex="0034"/>
  <outline>
    <contour>
      <point x="327" y="0" type="curve"/>
      <point x="362" y="0" type="line"/>
      <point x="374" y="61"/>
      <point x="384" y="109"/>
      <point x="398" y="180" type="curve"/>
      <point x="454" y="443" type="line"/>
      <point x="472" y="523"/>
      <point x="489" y="600"/>
      <point x="508" y="684" type="curve"/>
      <point x="471" y="684" type="line"/>
      <point x="429" y="637"/>
      <point x="386" y="589"/>
      <point x="344" y="542" type="curve"/>
      <point x="224" y="412" type="line"/>
      <point x="164" y="347"/>
      <point x="81" y="259"/>
      <point x="24" y="197" type="curve"/>
      <point x="19" y="169" type="line"/>
      <point x="388" y="169" type="line"/>
      <point x="435" y="169"/>
      <point x="503" y="168"/>
      <point x="546" y="167" type="curve"/>
      <point x="553" y="201" type="line"/>
      <point x="510" y="200"/>
      <point x="441" y="199"/>
      <point x="394" y="199" type="curve"/>
      <point x="381" y="199" type="line"/>
      <point x="53" y="199" type="line"/>
      <point x="55" y="182" type="line"/>
      <point x="98" y="230"/>
      <point x="140" y="277"/>
      <point x="183" y="325" type="curve"/>
      <point x="349" y="505" type="line"/>
      <point x="399" y="560"/>
      <point x="450" y="616"/>
      <point x="501" y="671" type="curve"/>
      <point x="469" y="663" type="line"/>
      <point x="454" y="588"/>
      <point x="439" y="518"/>
      <point x="424" y="443" type="curve"/>
      <point x="371" y="193" type="line"/>
      <point x="368" y="180" type="line"/>
      <point x="352" y="109"/>
      <point x="341" y="61"/>
    </contour>
  </outline>
</glyph>
<glyph name="seven" format="2">
  <advance width="511"/>
  <unicode hex="0037"/>
  <outline>
    <contour>
      <point x="69" y="0" type="curve"/>
      <point x="111" y="0" type="line"/>
      <point x="168" y="86"/>
      <point x="225" y="173"/>
      <point x="281" y="257" type="curve"/>
      <point x="380" y="403" type="line"/>
      <point x="440" y="492"/>
      <point x="495" y="573"/>
      <point x="552" y="658" type="curve"/>
      <point x="558" y="684" type="line"/>
      <point x="117" y="684" type="line"/>
      <point x="110" y="651" type="line"/>
      <point x="199" y="652"/>
      <point x="288" y="653"/>
      <point x="377" y="654" type="curve"/>
      <point x="526" y="654" type="line"/>
      <point x="518" y="664" type="line"/>
      <point x="481" y="610"/>
      <point x="446" y="557"/>
      <point x="411" y="503" type="curve"/>
      <point x="263" y="284" type="line"/>
      <point x="199" y="191"/>
      <point x="134" y="95"/>
    </contour>
  </outline>
</glyph>
<glyph name="equal" format="2">
  <advance width="560"/>
  <unicode hex="003D"/>
  <outline>
    <contour>
      <point x="55" y="173" type="line"/>
      <point x="113" y="174"/>
      <point x="180" y="175"/>
      <point x="215" y="175" type="curve"/>
      <point x="315" y="175" type="line"/>
      <point x="350" y="175"/>
      <point x="417" y="174"/>
      <point x="475" y="173" type="curve"/>
      <point x="482" y="207" type="line"/>
      <point x="424" y="206"/>
      <point x="356" y="205"/>
      <point x="321" y="205" type="curve"/>
      <point x="221" y="205" type="line"/>
      <point x="186" y="205"/>
      <point x="120" y="206"/>
      <point x="62" y="207" type="curve"/>
    </contour>
    <contour>
      <point x="98" y="383" type="line"/>
      <point x="156" y="384"/>
      <point x="223" y="385"/>
      <point x="258" y="385" type="curve"/>
      <point x="358" y="385" type="line"/>
      <point x="393" y="385"/>
      <point x="460" y="384"/>
      <point x="518" y="383" type="curve"/>
      <point x="525" y="417" type="line"/>
      <point x="467" y="416"/>
      <point x="399" y="415"/>
      <point x="364" y="415" type="curve"/>
      <point x="264" y="415" type="line"/>
      <point x="229" y="415"/>
      <point x="163" y="416"/>
      <point x="105" y="417" type="curve"/>
    </contour>
  </outline>
</glyph>
<glyph name="at" format="2">
  <advance width="875"/>
  <unicode hex="0040"/>
  <outline>
    <contour>
      <point x="472" y="-122" type="curve" smooth="yes"/>
      <point x="536" y="-122"/>
      <point x="663" y="-77"/>
      <point x="754" y="-46" type="curve"/>
      <point x="754" y="-9" type="line"/>
      <point x="643" y="-51"/>
      <point x="523" y="-89"/>
      <point x="472" y="-91" type="curve"/>
      <point x="185" y="-88"/>
      <point x="57" y="117"/>
      <point x="102" y="333" type="curve" smooth="yes"/>
      <point x="146" y="543"/>
      <point x="293" y="626"/>
      <point x="467" y="629" type="curve"/>
      <point x="692" y="626"/>
      <point x="818" y="455"/>
      <point x="779" y="248" type="curve" smooth="yes"/>
      <point x="771" y="206"/>
      <point x="672" y="93"/>
      <point x="638" y="93" type="curve"/>
      <point x="582" y="96"/>
      <point x="558" y="125"/>
      <point x="571" y="190" type="curve"/>
      <point x="604" y="349" type="line"/>
      <point x="614" y="386"/>
      <point x="627" y="434"/>
      <point x="639" y="478" type="curve"/>
      <point x="607" y="475" type="line"/>
      <point x="592" y="418" type="line"/>
      <point x="587" y="418" type="line"/>
      <point x="552" y="447"/>
      <point x="490" y="484"/>
      <point x="445" y="484" type="curve" smooth="yes"/>
      <point x="351" y="484"/>
      <point x="277" y="415"/>
      <point x="253" y="300" type="curve" smooth="yes"/>
      <point x="228" y="182"/>
      <point x="274" y="73"/>
      <point x="395" y="73" type="curve" smooth="yes"/>
      <point x="429" y="73"/>
      <point x="487" y="105"/>
      <point x="532" y="145" type="curve"/>
      <point x="537" y="145" type="line"/>
      <point x="544" y="104"/>
      <point x="570" y="63"/>
      <point x="645" y="63" type="curve" smooth="yes"/>
      <point x="680" y="63"/>
      <point x="797" y="178"/>
      <point x="809" y="242" type="curve" smooth="yes"/>
      <point x="852" y="469"/>
      <point x="706" y="660"/>
      <point x="468" y="660" type="curve" smooth="yes"/>
      <point x="278" y="660"/>
      <point x="116" y="559"/>
      <point x="71" y="337" type="curve" smooth="yes"/>
      <point x="24" y="107"/>
      <point x="167" y="-122"/>
    </contour>
    <contour>
      <point x="399" y="103" type="curve"/>
      <point x="298" y="105"/>
      <point x="261" y="188"/>
      <point x="284" y="297" type="curve" smooth="yes"/>
      <point x="303" y="386"/>
      <point x="356" y="451"/>
      <point x="447" y="453" type="curve"/>
      <point x="485" y="452"/>
      <point x="542" y="421"/>
      <point x="582" y="388" type="curve"/>
      <point x="540" y="194" type="line"/>
      <point x="493" y="140"/>
      <point x="431" y="105"/>
    </contour>
  </outline>
</glyph>
<glyph name="A" format="2">
  <advance width="668"/>
  <unicode hex="0041"/>
  <anchor x="282" y="0" name="bottom"/>
  <anchor x="583" y="0" name="ogonek"/>
  <anchor x="432" y="713" name="top"/>
  <outline>
    <contour>
      <point x="-21" y="0" type="curve"/>
      <point x="24" y="0" type="line"/>
      <point x="77" y="91"/>
      <point x="133" y="186"/>
      <point x="185" y="275" type="curve"/>
      <point x="425" y="677" type="line"/>
      <point x="431" y="677" type="line"/>
      <point x="500" y="274" type="line"/>
      <point x="514" y="187"/>
      <point x="530" y="87"/>
      <point x="544" y="0" type="curve"/>
      <point x="583" y="0" type="line"/>
      <point x="569" y="75"/>
      <point x="553" y="162"/>
      <point x="538" y="243" type="curve"/>
      <point x="496" y="487" type="line"/>
      <point x="483" y="571"/>
      <point x="472" y="642"/>
      <point x="461" y="713" type="curve"/>
      <point x="406" y="713" type="line"/>
      <point x="363" y="639"/>
      <point x="324" y="572"/>
      <point x="275" y="488" type="curve"/>
      <point x="129" y="243" type="line"/>
      <point x="82" y="167"/>
      <point x="27" y="78"/>
    </contour>
    <contour>
      <point x="128" y="203" type="line"/>
      <point x="523" y="203" type="line"/>
      <point x="529" y="233" type="line"/>
      <point x="134" y="233" type="line"/>
    </contour>
  </outline>
</glyph>
<glyph name="C" format="2">
  <advance width="686"/>
  <unicode hex="0043"/>
  <anchor x="349" y="0" name="bottom"/>
  <anchor x="489" y="713" name="top"/>
  <outline>
    <contour>
      <point x="381" y="-9" type="curve" smooth="yes"/>
      <point x="427" y="-9"/>
      <point x="522" y="19"/>
      <point x="582" y="41" type="curve"/>
      <point x="584" y="84" type="line"/>
      <point x="510" y="49"/>
      <point x="413" y="24"/>
      <point x="380" y="24" type="curve"/>
      <point x="164" y="27"/>
      <point x="81" y="204"/>
      <point x="121" y="393" type="curve" smooth="yes"/>
      <point x="164" y="595"/>
      <point x="300" y="689"/>
      <point x="486" y="692" type="curve"/>
      <point x="514" y="692"/>
      <point x="612" y="665"/>
      <point x="707" y="631" type="curve"/>
      <point x="719" y="667" type="line"/>
      <point x="660" y="686"/>
      <point x="536" y="725"/>
      <point x="488" y="725" type="curve" smooth="yes"/>
      <point x="286" y="725"/>
      <point x="134" y="612"/>
      <point x="89" y="399" type="curve" smooth="yes"/>
      <point x="45" y="191"/>
      <point x="146" y="-9"/>
    </contour>
  </outline>
</glyph>
<glyph name="D" format="2">
  <advance width="739"/>
  <unicode hex="0044"/>
  <anchor x="298" y="0" name="bottom"/>
  <anchor x="393.381" y="357" name="center"/>
  <anchor x="448" y="713" name="top"/>
  <outline>
    <contour>
      <point x="56" y="0" type="curve"/>
      <point x="142" y="0"/>
      <point x="201" y="-1"/>
      <point x="289" y="-1" type="curve"/>
      <point x="550" y="-1"/>
      <point x="656" y="129"/>
      <point x="699" y="333" type="curve" smooth="yes"/>
      <point x="741" y="534"/>
      <point x="638" y="714"/>
      <point x="400" y="714" type="curve"/>
      <point x="338" y="714"/>
      <point x="287" y="713"/>
      <point x="206" y="713" type="curve"/>
      <point x="190" y="634"/>
      <point x="176" y="562"/>
      <point x="158" y="473" type="curve"/>
      <point x="108" y="238" type="line"/>
      <point x="89" y="151"/>
      <point x="74" y="83"/>
    </contour>
    <contour>
      <point x="99" y="31" type="line"/>
      <point x="112" y="99"/>
      <point x="125" y="162"/>
      <point x="140" y="238" type="curve"/>
      <point x="190" y="475" type="line"/>
      <point x="207" y="551"/>
      <point x="221" y="614"/>
      <point x="236" y="682" type="curve"/>
      <point x="392" y="682" type="line"/>
      <point x="625" y="679"/>
      <point x="706" y="521"/>
      <point x="667" y="340" type="curve" smooth="yes"/>
      <point x="627" y="149"/>
      <point x="540" y="34"/>
      <point x="290" y="31" type="curve"/>
    </contour>
  </outline>
</glyph>
<glyph name="E" format="2">
  <advance width="591"/>
  <unicode hex="0045"/>
  <anchor x="268" y="0" name="bottom"/>
  <anchor x="476" y="0" name="ogonek"/>
  <anchor x="418" y="713" name="top"/>
  <anchor x="135" y="713" name="topleft"/>
  <outline>
    <contour>
      <point x="56" y="0" type="curve"/>
      <point x="93" y="0" type="line"/>
      <point x="94" y="4" type="line"/>
      <point x="110" y="85"/>
      <point x="123" y="154"/>
      <point x="141" y="242" type="curve"/>
      <point x="190" y="472" type="line"/>
      <point x="209" y="560"/>
      <point x="225" y="629"/>
      <point x="243" y="710" type="curve"/>
      <point x="243" y="713" type="line"/>
      <point x="206" y="713" type="line"/>
      <point x="190" y="634"/>
      <point x="176" y="562"/>
      <point x="158" y="473" type="curve"/>
      <point x="108" y="238" type="line"/>
      <point x="89" y="151"/>
      <point x="74" y="83"/>
    </contour>
    <contour>
      <point x="84" y="0" type="line"/>
      <point x="476" y="0" type="line"/>
      <point x="483" y="35" type="line"/>
      <point x="406" y="34"/>
      <point x="324" y="32"/>
      <point x="231" y="31" type="curve"/>
      <point x="91" y="31" type="line"/>
    </contour>
    <contour>
      <point x="157" y="347" type="line"/>
      <point x="301" y="347" type="line"/>
      <point x="395" y="347"/>
      <point x="458" y="346"/>
      <point x="527" y="346" type="curve"/>
      <point x="534" y="381" type="line"/>
      <point x="469" y="380"/>
      <point x="404" y="379"/>
      <point x="309" y="378" type="curve"/>
      <point x="164" y="378" type="line"/>
    </contour>
    <contour>
      <point x="227" y="682" type="line"/>
      <point x="363" y="682" type="line"/>
      <point x="473" y="681"/>
      <point x="549" y="679"/>
      <point x="620" y="678" type="curve"/>
      <point x="627" y="713" type="line"/>
      <point x="234" y="713" type="line"/>
    </contour>
  </outline>
</glyph>
<glyph name="G" format="2">
  <advance width="737"/>
  <unicode hex="0047"/>
  <anchor x="349" y="0" name="bottom"/>
  <anchor x="499" y="713" name="top"/>
  <outline>
    <contour>
      <point x="398" y="-9" type="curve" smooth="yes"/>
      <point x="448" y="-9"/>
      <point x="552" y="16"/>
      <point x="616" y="36" type="curve"/>
      <point x="614" y="75" type="line"/>
      <point x="537" y="45"/>
      <point x="433" y="24"/>
      <point x="399" y="24" type="curve"/>
      <point x="156" y="27"/>
      <point x="81" y="204"/>
      <point x="121" y="393" type="curve" smooth="yes"/>
      <point x="165" y="599"/>
      <point x="298" y="689"/>
      <point x="484" y="692" type="curve"/>
      <point x="514" y="692"/>
      <point x="618" y="660"/>
      <point x="718" y="619" type="curve"/>
      <point x="730" y="655" type="line"/>
      <point x="667" y="678"/>
      <point x="534" y="725"/>
      <point x="483" y="725" type="curve" smooth="yes"/>
      <point x="278" y="725"/>
      <point x="134" y="610"/>
      <point x="89" y="399" type="curve" smooth="yes"/>
      <point x="44" y="187"/>
      <point x="143" y="-9"/>
    </contour>
    <contour>
      <point x="580" y="36" type="curve"/>
      <point x="616" y="36" type="line"/>
      <point x="629" y="102"/>
      <point x="638" y="150"/>
      <point x="648" y="200" type="curve"/>
      <point x="662" y="260"/>
      <point x="672" y="302"/>
      <point x="683" y="349" type="curve"/>
      <point x="644" y="349" type="line"/>
      <point x="635" y="302"/>
      <point x="627" y="260"/>
      <point x="616" y="200" type="curve"/>
      <point x="605" y="150"/>
      <point x="594" y="99"/>
    </contour>
  </outline>
</glyph>
<glyph name="I" format="2">
  <advance width="253"/>
  <unicode hex="0049"/>
  <anchor x="74" y="0" name="bottom"/>
  <anchor x="93" y="0" name="ogonek"/>
  <anchor x="224" y="713" name="top"/>
  <anchor x="135" y="713" name="topleft"/>
  <outline>
    <contour>
      <point x="56" y="0" type="curve"/>
      <point x="93" y="0" type="line"/>
      <point x="109" y="81"/>
      <point x="122" y="148"/>
      <point x="140" y="238" type="curve"/>
      <point x="190" y="473" type="line"/>
      <point x="210" y="563"/>
      <point x="225" y="632"/>
      <point x="243" y="713" type="curve"/>
      <point x="206" y="713" type="line"/>
      <point x="190" y="634"/>
      <point x="176" y="562"/>
      <point x="158" y="473" type="curve"/>
      <point x="108" y="238" type="line"/>
      <point x="89" y="151"/>
      <point x="74" y="83"/>
    </contour>
  </outline>
</glyph>
<glyph name="K" format="2">
  <advance width="649"/>
  <unicode hex="004B"/>
  <anchor x="280" y="0" name="bottom"/>
  <anchor x="430" y="713" name="top"/>
  <outline>
    <contour>
      <point x="513" y="0" type="curve"/>
      <point x="564" y="0" type="line"/>
      <point x="509" y="59"/>
      <point x="422" y="152"/>
      <point x="357" y="222" type="curve"/>
      <point x="219" y="374" type="line"/>
      <point x="221" y="356" type="line"/>
      <point x="399" y="493" type="line"/>
      <point x="494" y="564"/>
      <point x="590" y="636"/>
      <point x="693" y="713" type="curve"/>
      <point x="633" y="713" type="line"/>
      <point x="529" y="633"/>
      <point x="459" y="578"/>
      <point x="379" y="516" type="curve"/>
      <point x="205" y="383" type="line"/>
      <point x="163" y="383" type="line"/>
      <point x="156" y="352" type="line"/>
      <point x="197" y="352" type="line"/>
      <point x="338" y="196" type="line"/>
      <point x="391" y="136"/>
      <point x="447" y="74"/>
    </contour>
    <contour>
      <point x="56" y="0" type="curve"/>
      <point x="93" y="0" type="line"/>
      <point x="109" y="81"/>
      <point x="122" y="148"/>
      <point x="140" y="238" type="curve"/>
      <point x="190" y="473" type="line"/>
      <point x="210" y="563"/>
      <point x="225" y="632"/>
      <point x="243" y="713" type="curve"/>
      <point x="206" y="713" type="line"/>
      <point x="190" y="634"/>
      <point x="176" y="562"/>
      <point x="158" y="473" type="curve"/>
      <point x="108" y="238" type="line"/>
      <point x="89" y="151"/>
      <point x="74" y="83"/>
    </contour>
  </outline>
</glyph>
<glyph name="L" format="2">
  <advance width="566"/>
  <unicode hex="004C"/>
  <anchor x="267" y="0" name="bottom"/>
  <anchor x="435" y="357" name="center"/>
  <anchor x="280" y="713" name="top"/>
  <anchor x="320" y="494" name="topright"/>
  <outline>
    <contour>
      <point x="56" y="0" type="curve"/>
      <point x="93" y="0" type="line"/>
      <point x="94" y="4" type="line"/>
      <point x="110" y="85"/>
      <point x="123" y="154"/>
      <point x="141" y="242" type="curve"/>
      <point x="190" y="473" type="line"/>
      <point x="210" y="563"/>
      <point x="225" y="632"/>
      <point x="243" y="713" type="curve"/>
      <point x="206" y="713" type="line"/>
      <point x="190" y="634"/>
      <point x="176" y="562"/>
      <point x="158" y="473" type="curve"/>
      <point x="108" y="238" type="line"/>
      <point x="89" y="151"/>
      <point x="74" y="83"/>
    </contour>
    <contour>
      <point x="84" y="0" type="line"/>
      <point x="476" y="0" type="line"/>
      <point x="483" y="35" type="line"/>
      <point x="399" y="34"/>
      <point x="328" y="33"/>
      <point x="205" y="31" type="curve"/>
      <point x="91" y="31" type="line"/>
    </contour>
  </outline>
</glyph>
<glyph name="N" format="2">
  <advance width="761"/>
  <unicode hex="004E"/>
  <anchor x="327" y="0" name="bottom"/>
  <anchor x="477" y="713" name="top"/>
  <outline>
    <contour>
      <point x="56" y="0" type="curve"/>
      <point x="93" y="0" type="line"/>
      <point x="109" y="81"/>
      <point x="122" y="148"/>
      <point x="140" y="238" type="curve"/>
      <point x="229" y="661" type="line"/>
      <point x="233" y="661" type="line"/>
      <point x="363" y="400" type="line"/>
      <point x="440" y="244"/>
      <point x="503" y="116"/>
      <point x="560" y="0" type="curve"/>
      <point x="598" y="0" type="line"/>
      <point x="614" y="81"/>
      <point x="627" y="148"/>
      <point x="645" y="238" type="curve"/>
      <point x="695" y="473" type="line"/>
      <point x="715" y="563"/>
      <point x="730" y="632"/>
      <point x="748" y="713" type="curve"/>
      <point x="711" y="713" type="line"/>
      <point x="695" y="634"/>
      <point x="681" y="562"/>
      <point x="663" y="473" type="curve"/>
      <point x="574" y="56" type="line"/>
      <point x="570" y="56" type="line"/>
      <point x="441" y="315" type="line"/>
      <point x="378" y="443"/>
      <point x="314" y="573"/>
      <point x="245" y="713" type="curve"/>
      <point x="206" y="713" type="line"/>
      <point x="190" y="634"/>
      <point x="176" y="562"/>
      <point x="158" y="473" type="curve"/>
      <point x="108" y="238" type="line"/>
      <point x="89" y="151"/>
      <point x="74" y="83"/>
    </contour>
  </outline>
</glyph>
<glyph name="S" format="2">
  <advance width="575"/>
  <unicode hex="0053"/>
  <anchor x="241" y="0" name="bottom"/>
  <anchor x="391" y="713" name="top"/>
  <outline>
    <contour>
      <point x="268" y="-9" type="curve" smooth="yes"/>
      <point x="412" y="-9"/>
      <point x="488" y="55"/>
      <point x="510" y="159" type="curve" smooth="yes"/>
      <point x="529" y="250"/>
      <point x="489" y="314"/>
      <point x="330" y="382" type="curve" smooth="yes"/>
      <point x="190" y="442"/>
      <point x="144" y="481"/>
      <point x="163" y="570" type="curve" smooth="yes"/>
      <point x="184" y="669"/>
      <point x="280" y="690"/>
      <point x="367" y="692" type="curve"/>
      <point x="390" y="692"/>
      <point x="478" y="662"/>
      <point x="558" y="628" type="curve"/>
      <point x="569" y="663" type="line"/>
      <point x="516" y="683"/>
      <point x="408" y="725"/>
      <point x="367" y="725" type="curve" smooth="yes"/>
      <point x="235" y="725"/>
      <point x="152" y="671"/>
      <point x="132" y="576" type="curve" smooth="yes"/>
      <point x="109" y="469"/>
      <point x="166" y="417"/>
      <point x="312" y="355" type="curve" smooth="yes"/>
      <point x="433" y="304"/>
      <point x="498" y="258"/>
      <point x="479" y="165" type="curve" smooth="yes"/>
      <point x="454" y="47"/>
      <point x="357" y="26"/>
      <point x="269" y="24" type="curve"/>
      <point x="218" y="24"/>
      <point x="138" y="57"/>
      <point x="46" y="100" type="curve"/>
      <point x="34" y="64" type="line"/>
      <point x="119" y="27"/>
      <point x="216" y="-9"/>
    </contour>
  </outline>
</glyph>
<glyph name="U" format="2">
  <advance width="732"/>
  <unicode hex="0055"/>
  <anchor x="315" y="0" name="bottom"/>
  <anchor x="417" y="0" name="ogonek"/>
  <anchor x="465" y="713" name="top"/>
  <anchor x="787" y="713" name="topright"/>
  <outline>
    <contour>
      <point x="332" y="-9" type="curve" smooth="yes"/>
      <point x="521" y="-9"/>
      <point x="602" y="99"/>
      <point x="631" y="236" type="curve" smooth="yes"/>
      <point x="641" y="284"/>
      <point x="661" y="378"/>
      <point x="681" y="473" type="curve"/>
      <point x="701" y="563"/>
      <point x="716" y="632"/>
      <point x="734" y="713" type="curve"/>
      <point x="697" y="713" type="line"/>
      <point x="681" y="634"/>
      <point x="667" y="562"/>
      <point x="649" y="473" type="curve"/>
      <point x="600" y="247" type="line" smooth="yes"/>
      <point x="572" y="116"/>
      <point x="510" y="25"/>
      <point x="333" y="24" type="curve"/>
      <point x="153" y="25"/>
      <point x="107" y="141"/>
      <point x="138" y="288" type="curve" smooth="yes"/>
      <point x="178" y="473" type="line"/>
      <point x="198" y="563"/>
      <point x="213" y="632"/>
      <point x="231" y="713" type="curve"/>
      <point x="194" y="713" type="line"/>
      <point x="178" y="634"/>
      <point x="164" y="562"/>
      <point x="146" y="473" type="curve"/>
      <point x="130" y="397"/>
      <point x="113" y="327"/>
      <point x="105" y="288" type="curve" smooth="yes"/>
      <point x="71" y="130"/>
      <point x="139" y="-9"/>
    </contour>
  </outline>
</glyph>
<glyph name="bracketleft" format="2">
  <advance width="345"/>
  <unicode hex="005B"/>
  <outline>
    <contour>
      <point x="34" y="-112" type="curve"/>
      <point x="70" y="-112" type="line"/>
      <point x="70" y="-109" type="line"/>
      <point x="86" y="-28"/>
      <point x="100" y="43"/>
      <point x="117" y="130" type="curve"/>
      <point x="199" y="519" type="line"/>
      <point x="218" y="606"/>
      <point x="234" y="676"/>
      <point x="252" y="757" type="curve"/>
      <point x="253" y="760" type="line"/>
      <point x="217" y="760" type="line"/>
      <point x="201" y="679"/>
      <point x="186" y="609"/>
      <point x="169" y="522" type="curve"/>
      <point x="86" y="126" type="line"/>
      <point x="66" y="39"/>
      <point x="52" y="-31"/>
    </contour>
    <contour>
      <point x="61" y="-112" type="line"/>
      <point x="259" y="-112" type="line"/>
      <point x="265" y="-81" type="line"/>
      <point x="216" y="-81"/>
      <point x="163" y="-82"/>
      <point x="104" y="-82" type="curve"/>
      <point x="67" y="-82" type="line"/>
    </contour>
    <contour>
      <point x="238" y="730" type="line"/>
      <point x="272" y="730" type="line"/>
      <point x="342" y="730"/>
      <point x="391" y="729"/>
      <point x="436" y="729" type="curve"/>
      <point x="443" y="760" type="line"/>
      <point x="244" y="760" type="line"/>
    </contour>
  </outline>
</glyph>
<glyph name="underscore" format="2">
  <advance width="380"/>
  <unicode hex="005F"/>
  <outline>
    <contour>
      <point x="-81" y="-90" type="line"/>
      <point x="-23" y="-89"/>
      <point x="45" y="-88"/>
      <point x="80" y="-88" type="curve"/>
      <point x="160" y="-88" type="line"/>
      <point x="195" y="-88"/>
      <point x="261" y="-89"/>
      <point x="319" y="-90" type="curve"/>
      <point x="326" y="-58" type="line"/>
      <point x="268" y="-59"/>
      <point x="200" y="-60"/>
      <point x="165" y="-60" type="curve"/>
      <point x="85" y="-60" type="line"/>
      <point x="50" y="-60"/>
      <point x="-16" y="-59"/>
      <point x="-74" y="-58" type="curve"/>
    </contour>
  </outline>
</glyph>
<glyph name="a" format="2">
  <advance width="516"/>
  <unicode hex="0061"/>
  <anchor x="210" y="0" name="bottom"/>
  <anchor x="373" y="0" name="ogonek"/>
  <anchor x="316" y="494" name="top"/>
  <outline>
    <contour>
      <point x="182" y="-9" type="curve" smooth="yes"/>
      <point x="233" y="-9"/>
      <point x="310" y="40"/>
      <point x="363" y="87" type="curve"/>
      <point x="369" y="87" type="line"/>
      <point x="372" y="0" type="line"/>
      <point x="404" y="0" type="line"/>
      <point x="401" y="46"/>
      <point x="399" y="79"/>
      <point x="398" y="121" type="curve"/>
      <point x="417" y="211" type="line" smooth="yes"/>
      <point x="426" y="256"/>
      <point x="435" y="290"/>
      <point x="441" y="318" type="curve" smooth="yes"/>
      <point x="464" y="427"/>
      <point x="417" y="504"/>
      <point x="301" y="504" type="curve" smooth="yes"/>
      <point x="266" y="504"/>
      <point x="181" y="481"/>
      <point x="136" y="469" type="curve"/>
      <point x="131" y="431" type="line"/>
      <point x="210" y="454"/>
      <point x="277" y="472"/>
      <point x="299" y="472" type="curve" smooth="yes"/>
      <point x="390" y="472"/>
      <point x="437" y="427"/>
      <point x="409" y="312" type="curve"/>
      <point x="228" y="276" type="line" smooth="yes"/>
      <point x="146" y="260"/>
      <point x="64" y="241"/>
      <point x="43" y="148" type="curve" smooth="yes"/>
      <point x="22" y="56"/>
      <point x="83" y="-9"/>
    </contour>
    <contour>
      <point x="183" y="22" type="curve" smooth="yes"/>
      <point x="105" y="22"/>
      <point x="56" y="62"/>
      <point x="74" y="148" type="curve" smooth="yes"/>
      <point x="88" y="215"/>
      <point x="156" y="231"/>
      <point x="232" y="246" type="curve" smooth="yes"/>
      <point x="352" y="270"/>
      <point x="383" y="280"/>
      <point x="404" y="288" type="curve"/>
      <point x="372" y="139" type="line"/>
      <point x="302" y="62"/>
      <point x="225" y="22"/>
    </contour>
  </outline>
</glyph>
<glyph name="b" format="2">
  <advance width="590"/>
  <unicode hex="0062"/>
  <outline>
    <contour>
      <point x="280" y="-9" type="curve" smooth="yes"/>
      <point x="402" y="-9"/>
      <point x="492" y="76"/>
      <point x="522" y="220" type="curve" smooth="yes"/>
      <point x="553" y="370"/>
      <point x="491" y="504"/>
      <point x="338" y="504" type="curve" smooth="yes"/>
      <point x="295" y="504"/>
      <point x="216" y="459"/>
      <point x="179" y="431" type="curve"/>
      <point x="173" y="431" type="line"/>
      <point x="186" y="494" type="line"/>
      <point x="205" y="579"/>
      <point x="223" y="658"/>
      <point x="243" y="740" type="curve"/>
      <point x="201" y="729" type="line"/>
      <point x="187" y="657"/>
      <point x="172" y="579"/>
      <point x="156" y="494" type="curve"/>
      <point x="98" y="221" type="line"/>
      <point x="79" y="140"/>
      <point x="65" y="75"/>
      <point x="48" y="0" type="curve"/>
      <point x="77" y="0" type="line"/>
      <point x="98" y="83" type="line"/>
      <point x="104" y="83" type="line"/>
      <point x="153" y="36"/>
      <point x="227" y="-9"/>
    </contour>
    <contour>
      <point x="280" y="23" type="curve"/>
      <point x="235" y="25"/>
      <point x="156" y="65"/>
      <point x="107" y="123" type="curve"/>
      <point x="162" y="381" type="line"/>
      <point x="217" y="431"/>
      <point x="305" y="471"/>
      <point x="337" y="472" type="curve"/>
      <point x="472" y="469"/>
      <point x="519" y="360"/>
      <point x="491" y="224" type="curve" smooth="yes"/>
      <point x="467" y="109"/>
      <point x="401" y="26"/>
    </contour>
  </outline>
</glyph>
<glyph name="d" format="2">
  <advance width="572"/>
  <unicode hex="0064"/>
  <anchor x="254" y="0" name="bottom"/>
  <anchor x="289" y="247" name="center"/>
  <anchor x="406" y="723" name="top"/>
  <anchor x="597" y="494" name="topright"/>
  <outline>
    <contour>
      <point x="252" y="-9" type="curve" smooth="yes"/>
      <point x="297" y="-9"/>
      <point x="370" y="30"/>
      <point x="417" y="79" type="curve"/>
      <point x="423" y="79" type="line"/>
      <point x="405" y="0" type="line"/>
      <point x="435" y="0" type="line"/>
      <point x="450" y="75"/>
      <point x="463" y="140"/>
      <point x="479" y="221" type="curve"/>
      <point x="537" y="494" type="line"/>
      <point x="556" y="579"/>
      <point x="574" y="658"/>
      <point x="594" y="740" type="curve"/>
      <point x="552" y="729" type="line"/>
      <point x="538" y="657"/>
      <point x="523" y="579"/>
      <point x="507" y="494" type="curve"/>
      <point x="493" y="425" type="line"/>
      <point x="487" y="425" type="line"/>
      <point x="445" y="460"/>
      <point x="365" y="504"/>
      <point x="310" y="504" type="curve" smooth="yes"/>
      <point x="188" y="504"/>
      <point x="98" y="419"/>
      <point x="68" y="275" type="curve" smooth="yes"/>
      <point x="37" y="125"/>
      <point x="99" y="-9"/>
    </contour>
    <contour>
      <point x="253" y="23" type="curve"/>
      <point x="118" y="25"/>
      <point x="70" y="136"/>
      <point x="99" y="271" type="curve" smooth="yes"/>
      <point x="124" y="388"/>
      <point x="189" y="469"/>
      <point x="310" y="472" type="curve"/>
      <point x="358" y="471"/>
      <point x="434" y="431"/>
      <point x="484" y="390" type="curve"/>
      <point x="431" y="136" type="line"/>
      <point x="382" y="76"/>
      <point x="306" y="25"/>
    </contour>
  </outline>
</glyph>
<glyph name="h" format="2">
  <advance width="568"/>
  <unicode hex="0068"/>
  <guideline x="102" y="731" angle="15.2551"/>
  <anchor x="237" y="0" name="bottom"/>
  <anchor x="323" y="409" name="center"/>
  <anchor x="372" y="723" name="top"/>
  <outline>
    <contour>
      <point x="48" y="0" type="curve"/>
      <point x="83" y="0" type="line"/>
      <point x="98" y="75"/>
      <point x="111" y="140"/>
      <point x="128" y="221" type="curve"/>
      <point x="157" y="354" type="line"/>
      <point x="229" y="421"/>
      <point x="314" y="472"/>
      <point x="361" y="472" type="curve" smooth="yes"/>
      <point x="458" y="472"/>
      <point x="484" y="416"/>
      <point x="462" y="313" type="curve"/>
      <point x="443" y="221" type="line"/>
      <point x="424" y="140"/>
      <point x="410" y="75"/>
      <point x="393" y="0" type="curve"/>
      <point x="428" y="0" type="line"/>
      <point x="443" y="75"/>
      <point x="456" y="140"/>
      <point x="473" y="221" type="curve"/>
      <point x="481" y="259"/>
      <point x="487" y="284"/>
      <point x="493" y="311" type="curve" smooth="yes"/>
      <point x="520" y="433"/>
      <point x="474" y="504"/>
      <point x="363" y="504" type="curve" smooth="yes"/>
      <point x="303" y="504"/>
      <point x="219" y="445"/>
      <point x="173" y="406" type="curve"/>
      <point x="168" y="406" type="line"/>
      <point x="186" y="494" type="line"/>
      <point x="205" y="579"/>
      <point x="223" y="658"/>
      <point x="243" y="740" type="curve"/>
      <point x="201" y="729" type="line"/>
      <point x="187" y="657"/>
      <point x="172" y="579"/>
      <point x="156" y="494" type="curve"/>
      <point x="98" y="221" type="line"/>
      <point x="79" y="140"/>
      <point x="65" y="75"/>
    </contour>
  </outline>
</glyph>
<glyph name="k" format="2">
  <advance width="516"/>
  <unicode hex="006B"/>
  <anchor x="216" y="0" name="bottom"/>
  <anchor x="368" y="723" name="top"/>
  <outline>
    <contour>
      <point x="390" y="0" type="curve"/>
      <point x="442" y="0" type="line"/>
      <point x="382" y="57"/>
      <point x="322" y="113"/>
      <point x="262" y="170" type="curve"/>
      <point x="169" y="259" type="line"/>
      <point x="174" y="240" type="line"/>
      <point x="287" y="323" type="line"/>
      <point x="366" y="380"/>
      <point x="446" y="437"/>
      <point x="527" y="494" type="curve"/>
      <point x="469" y="494" type="line"/>
      <point x="403" y="445"/>
      <point x="336" y="395"/>
      <point x="270" y="346" type="curve"/>
      <point x="161" y="266" type="line"/>
      <point x="131" y="266" type="line"/>
      <point x="125" y="238" type="line"/>
      <point x="149" y="238" type="line"/>
      <point x="244" y="147" type="line"/>
      <point x="293" y="98"/>
      <point x="342" y="49"/>
    </contour>
    <contour>
      <point x="48" y="0" type="curve"/>
      <point x="83" y="0" type="line"/>
      <point x="98" y="75"/>
      <point x="111" y="140"/>
      <point x="128" y="221" type="curve"/>
      <point x="186" y="494" type="line"/>
      <point x="205" y="579"/>
      <point x="223" y="658"/>
      <point x="243" y="740" type="curve"/>
      <point x="201" y="729" type="line"/>
      <point x="187" y="657"/>
      <point x="172" y="579"/>
      <point x="156" y="494" type="curve"/>
      <point x="98" y="221" type="line"/>
      <point x="79" y="140"/>
      <point x="65" y="75"/>
    </contour>
  </outline>
</glyph>
<glyph name="p" format="2">
  <advance width="596"/>
  <unicode hex="0070"/>
  <outline>
    <contour>
      <point x="12" y="-194" type="curve"/>
      <point x="48" y="-192" type="line"/>
      <point x="63" y="-117"/>
      <point x="76" y="-52"/>
      <point x="93" y="29" type="curve"/>
      <point x="105" y="83" type="line"/>
      <point x="111" y="83" type="line"/>
      <point x="160" y="36"/>
      <point x="233" y="-9"/>
      <point x="286" y="-9" type="curve" smooth="yes"/>
      <point x="408" y="-9"/>
      <point x="498" y="76"/>
      <point x="528" y="220" type="curve" smooth="yes"/>
      <point x="559" y="370"/>
      <point x="497" y="504"/>
      <point x="344" y="504" type="curve" smooth="yes"/>
      <point x="300" y="504"/>
      <point x="220" y="459"/>
      <point x="182" y="429" type="curve"/>
      <point x="176" y="429" type="line"/>
      <point x="184" y="497" type="line"/>
      <point x="153" y="494" type="line"/>
      <point x="145" y="443"/>
      <point x="138" y="390"/>
      <point x="130" y="342" type="curve"/>
      <point x="63" y="29" type="line"/>
      <point x="45" y="-52"/>
      <point x="29" y="-119"/>
    </contour>
    <contour>
      <point x="286" y="23" type="curve"/>
      <point x="241" y="25"/>
      <point x="162" y="65"/>
      <point x="113" y="123" type="curve"/>
      <point x="168" y="381" type="line"/>
      <point x="223" y="431"/>
      <point x="311" y="471"/>
      <point x="343" y="472" type="curve"/>
      <point x="478" y="469"/>
      <point x="525" y="360"/>
      <point x="497" y="224" type="curve" smooth="yes"/>
      <point x="473" y="109"/>
      <point x="407" y="26"/>
    </contour>
  </outline>
</glyph>
<glyph name="asciitilde" format="2">
  <advance width="560"/>
  <unicode hex="007E"/>
  <outline>
    <contour>
      <point x="403" y="233" type="curve" smooth="yes"/>
      <point x="458" y="233"/>
      <point x="496" y="271"/>
      <point x="511" y="344" type="curve"/>
      <point x="482" y="344" type="line"/>
      <point x="465" y="288"/>
      <point x="446" y="266"/>
      <point x="403" y="264" type="curve"/>
      <point x="330" y="266"/>
      <point x="260" y="357"/>
      <point x="180" y="357" type="curve" smooth="yes"/>
      <point x="125" y="357"/>
      <point x="86" y="318"/>
      <point x="70" y="246" type="curve"/>
      <point x="99" y="246" type="line"/>
      <point x="116" y="302"/>
      <point x="137" y="324"/>
      <point x="179" y="326" type="curve"/>
      <point x="253" y="324"/>
      <point x="323" y="233"/>
    </contour>
  </outline>
</glyph>
<glyph name="yen" format="2">
  <advance width="603"/>
  <unicode hex="00A5"/>
  <outline>
    <contour>
      <point x="295" y="288" type="line"/>
      <point x="324" y="288" type="line"/>
      <point x="528" y="527" type="line"/>
      <point x="576" y="582"/>
      <point x="622" y="636"/>
      <point x="664" y="684" type="curve"/>
      <point x="618" y="684" type="line"/>
      <point x="534" y="584"/>
      <point x="496" y="538"/>
      <point x="429" y="458" type="curve"/>
      <point x="317" y="326" type="line"/>
      <point x="311" y="326" type="line"/>
      <point x="257" y="454" type="line"/>
      <point x="224" y="535"/>
      <point x="204" y="582"/>
      <point x="162" y="684" type="curve"/>
      <point x="123" y="684" type="line"/>
      <point x="159" y="604"/>
      <point x="172" y="574"/>
      <point x="193" y="527" type="curve"/>
    </contour>
    <contour>
      <point x="231" y="0" type="curve"/>
      <point x="267" y="0" type="line"/>
      <point x="283" y="79"/>
      <point x="296" y="144"/>
      <point x="313" y="228" type="curve"/>
      <point x="331" y="313" type="line"/>
      <point x="300" y="313" type="line"/>
      <point x="282" y="228" type="line"/>
      <point x="263" y="144"/>
      <point x="249" y="80"/>
    </contour>
    <contour>
      <point x="68" y="156" type="line"/>
      <point x="126" y="157"/>
      <point x="193" y="158"/>
      <point x="228" y="158" type="curve"/>
      <point x="338" y="158" type="line"/>
      <point x="373" y="158"/>
      <point x="440" y="157"/>
      <point x="498" y="156" type="curve"/>
      <point x="504" y="188" type="line"/>
      <point x="446" y="187"/>
      <point x="379" y="186"/>
      <point x="344" y="186" type="curve"/>
      <point x="234" y="186" type="line"/>
      <point x="199" y="186"/>
      <point x="132" y="187"/>
      <point x="74" y="188" type="curve"/>
    </contour>
    <contour>
      <point x="95" y="286" type="line"/>
      <point x="154" y="287"/>
      <point x="221" y="288"/>
      <point x="256" y="288" type="curve"/>
      <point x="366" y="288" type="line"/>
      <point x="401" y="288"/>
      <point x="468" y="287"/>
      <point x="525" y="286" type="curve"/>
      <point x="532" y="318" type="line"/>
      <point x="474" y="317"/>
      <point x="407" y="316"/>
      <point x="372" y="316" type="curve"/>
      <point x="262" y="316" type="line"/>
      <point x="227" y="316"/>
      <point x="160" y="317"/>
      <point x="102" y="318" type="curve"/>
    </contour>
  </outline>
</glyph>
<glyph name="brokenbar" format="2">
  <advance width="250"/>
  <unicode hex="00A6"/>
  <outline>
    <contour>
      <point x="136" y="366" type="line"/>
      <point x="166" y="366" type="line"/>
      <point x="185" y="457" type="line"/>
      <point x="193" y="495"/>
      <point x="227" y="647"/>
      <point x="257" y="786" type="curve"/>
      <point x="223" y="786" type="line"/>
      <point x="194" y="647"/>
      <point x="163" y="495"/>
      <point x="155" y="457" type="curve"/>
    </contour>
    <contour>
      <point x="23" y="-154" type="curve"/>
      <point x="57" y="-154" type="line"/>
      <point x="86" y="-16"/>
      <point x="117" y="137"/>
      <point x="125" y="175" type="curve"/>
      <point x="144" y="266" type="line"/>
      <point x="114" y="266" type="line"/>
      <point x="95" y="175" type="line"/>
      <point x="87" y="137"/>
      <point x="53" y="-16"/>
    </contour>
  </outline>
</glyph>
<glyph name="section" format="2">
  <advance width="520"/>
  <unicode hex="00A7"/>
  <outline>
    <contour>
      <point x="181" y="-122" type="curve" smooth="yes"/>
      <point x="300" y="-122"/>
      <point x="367" y="-74"/>
      <point x="385" y="10" type="curve" smooth="yes"/>
      <point x="407" y="112"/>
      <point x="332" y="163"/>
      <point x="231" y="209" type="curve" smooth="yes"/>
      <point x="114" y="262"/>
      <point x="97" y="297"/>
      <point x="111" y="363" type="curve" smooth="yes"/>
      <point x="127" y="440"/>
      <point x="203" y="455"/>
      <point x="247" y="459" type="curve"/>
      <point x="213" y="489" type="line"/>
      <point x="147" y="476"/>
      <point x="93" y="433"/>
      <point x="79" y="367" type="curve" smooth="yes"/>
      <point x="59" y="273"/>
      <point x="113" y="231"/>
      <point x="211" y="184" type="curve" smooth="yes"/>
      <point x="329" y="128"/>
      <point x="369" y="93"/>
      <point x="352" y="12" type="curve" smooth="yes"/>
      <point x="335" y="-70"/>
      <point x="260" y="-87"/>
      <point x="184" y="-89" type="curve"/>
      <point x="140" y="-89"/>
      <point x="75" y="-60"/>
      <point x="0" y="-25" type="curve"/>
      <point x="-12" y="-59" type="line"/>
      <point x="58" y="-90"/>
      <point x="138" y="-122"/>
    </contour>
    <contour>
      <point x="349" y="117" type="line"/>
      <point x="423" y="133"/>
      <point x="467" y="177"/>
      <point x="481" y="242" type="curve" smooth="yes"/>
      <point x="503" y="343"/>
      <point x="428" y="393"/>
      <point x="327" y="439" type="curve" smooth="yes"/>
      <point x="210" y="492"/>
      <point x="193" y="530"/>
      <point x="207" y="594" type="curve" smooth="yes"/>
      <point x="225" y="678"/>
      <point x="310" y="690"/>
      <point x="353" y="692" type="curve"/>
      <point x="374" y="692"/>
      <point x="451" y="668"/>
      <point x="522" y="642" type="curve"/>
      <point x="532" y="677" type="line"/>
      <point x="485" y="693"/>
      <point x="389" y="725"/>
      <point x="353" y="725" type="curve" smooth="yes"/>
      <point x="268" y="725"/>
      <point x="192" y="679"/>
      <point x="175" y="598" type="curve" smooth="yes"/>
      <point x="155" y="505"/>
      <point x="209" y="461"/>
      <point x="307" y="414" type="curve" smooth="yes"/>
      <point x="425" y="358"/>
      <point x="466" y="325"/>
      <point x="449" y="244" type="curve" smooth="yes"/>
      <point x="435" y="177"/>
      <point x="380" y="154"/>
      <point x="319" y="147" type="curve"/>
    </contour>
  </outline>
</glyph>
<glyph name="multiply" format="2">
  <advance width="554"/>
  <unicode hex="00D7"/>
  <outline>
    <contour>
      <point x="426" y="93" type="curve"/>
      <point x="453" y="116" type="line"/>
      <point x="421" y="155"/>
      <point x="381" y="204"/>
      <point x="361" y="229" type="curve"/>
      <point x="241" y="382" type="line"/>
      <point x="220" y="410"/>
      <point x="186" y="455"/>
      <point x="153" y="499" type="curve"/>
      <point x="125" y="476" type="line"/>
      <point x="159" y="435"/>
      <point x="197" y="389"/>
      <point x="218" y="363" type="curve"/>
      <point x="338" y="210" type="line"/>
      <point x="357" y="185"/>
      <point x="395" y="134"/>
    </contour>
    <contour>
      <point x="67" y="91" type="line"/>
      <point x="116" y="133"/>
      <point x="173" y="181"/>
      <point x="201" y="205" type="curve"/>
      <point x="392" y="362" type="line"/>
      <point x="423" y="387"/>
      <point x="480" y="432"/>
      <point x="530" y="472" type="curve"/>
      <point x="507" y="499" type="line"/>
      <point x="458" y="457"/>
      <point x="404" y="411"/>
      <point x="373" y="385" type="curve"/>
      <point x="187" y="232" type="line"/>
      <point x="157" y="208"/>
      <point x="95" y="158"/>
      <point x="45" y="118" type="curve"/>
    </contour>
  </outline>
</glyph>
<glyph name="Oslash" format="2">
  <advance width="819"/>
  <unicode hex="00D8"/>
  <anchor x="358" y="0" name="bottom"/>
  <anchor x="433" y="357" name="center"/>
  <anchor x="464" y="0" name="ogonek"/>
  <anchor x="508" y="713" name="top"/>
  <anchor x="126" y="713" name="topleft"/>
  <anchor x="791" y="713" name="topright"/>
  <outline>
    <contour>
      <point x="403" y="-9" type="curve" smooth="yes"/>
      <point x="591" y="-9"/>
      <point x="734" y="121"/>
      <point x="774" y="309" type="curve" smooth="yes"/>
      <point x="821" y="529"/>
      <point x="696" y="725"/>
      <point x="469" y="725" type="curve" smooth="yes"/>
      <point x="277" y="725"/>
      <point x="132" y="597"/>
      <point x="88" y="393" type="curve" smooth="yes"/>
      <point x="42" y="176"/>
      <point x="172" y="-9"/>
    </contour>
    <contour>
      <point x="403" y="24" type="curve"/>
      <point x="197" y="28"/>
      <point x="76" y="177"/>
      <point x="120" y="387" type="curve" smooth="yes"/>
      <point x="159" y="566"/>
      <point x="274" y="688"/>
      <point x="469" y="692" type="curve"/>
      <point x="672" y="688"/>
      <point x="787" y="529"/>
      <point x="742" y="316" type="curve" smooth="yes"/>
      <point x="709" y="154"/>
      <point x="594" y="28"/>
    </contour>
    <contour>
      <point x="105" y="-58" type="line"/>
      <point x="179" y="28"/>
      <point x="248" y="108"/>
      <point x="330" y="203" type="curve"/>
      <point x="555" y="463" type="line"/>
      <point x="638" y="557"/>
      <point x="706" y="634"/>
      <point x="784" y="722" type="curve"/>
      <point x="756" y="745" type="line"/>
      <point x="679" y="655"/>
      <point x="613" y="578"/>
      <point x="529" y="480" type="curve"/>
      <point x="307" y="224" type="line"/>
      <point x="224" y="131"/>
      <point x="156" y="54"/>
      <point x="78" y="-33" type="curve"/>
    </contour>
  </outline>
</glyph>
<glyph name="germandbls" format="2">
  <advance width="601"/>
  <unicode hex="00DF"/>
  <outline>
    <contour>
      <point x="283" y="-4" type="curve" smooth="yes"/>
      <point x="421" y="-4"/>
      <point x="500" y="60"/>
      <point x="527" y="185" type="curve" smooth="yes"/>
      <point x="556" y="319"/>
      <point x="463" y="386"/>
      <point x="418" y="401" type="curve"/>
      <point x="419" y="407" type="line"/>
      <point x="467" y="426"/>
      <point x="534" y="459"/>
      <point x="555" y="556" type="curve" smooth="yes"/>
      <point x="577" y="659"/>
      <point x="516" y="744"/>
      <point x="405" y="744" type="curve" smooth="yes"/>
      <point x="296" y="744"/>
      <point x="214" y="686"/>
      <point x="183" y="536" type="curve" smooth="yes"/>
      <point x="164" y="448"/>
      <point x="146" y="359"/>
      <point x="127" y="271" type="curve"/>
      <point x="117" y="221" type="line"/>
      <point x="98" y="140"/>
      <point x="84" y="75"/>
      <point x="67" y="0" type="curve"/>
      <point x="102" y="0" type="line"/>
      <point x="117" y="75"/>
      <point x="131" y="140"/>
      <point x="147" y="221" type="curve"/>
      <point x="212" y="531" type="line" smooth="yes"/>
      <point x="240" y="666"/>
      <point x="306" y="711"/>
      <point x="404" y="712" type="curve"/>
      <point x="503" y="711"/>
      <point x="542" y="646"/>
      <point x="525" y="562" type="curve" smooth="yes"/>
      <point x="504" y="461"/>
      <point x="419" y="423"/>
      <point x="330" y="422" type="curve"/>
      <point x="323" y="392" type="line"/>
      <point x="435" y="391"/>
      <point x="521" y="315"/>
      <point x="496" y="192" type="curve" smooth="yes"/>
      <point x="473" y="79"/>
      <point x="403" y="27"/>
      <point x="283" y="27" type="curve"/>
      <point x="261" y="27"/>
      <point x="239" y="30"/>
      <point x="226" y="34" type="curve"/>
      <point x="219" y="1" type="line"/>
      <point x="235" y="-2"/>
      <point x="263" y="-4"/>
    </contour>
    <contour>
      <point x="74" y="463" type="line"/>
      <point x="177" y="468" type="line"/>
      <point x="183" y="494" type="line"/>
      <point x="81" y="494" type="line"/>
    </contour>
  </outline>
</glyph>
<glyph name="ae" format="2">
  <advance width="823"/>
  <unicode hex="00E6"/>
  <anchor x="350" y="0" name="bottom"/>
  <anchor x="454" y="494" name="top"/>
  <outline>
    <contour>
      <point x="582" y="-9" type="curve" smooth="yes"/>
      <point x="617" y="-9"/>
      <point x="683" y="7"/>
      <point x="730" y="23" type="curve"/>
      <point x="735" y="63" type="line"/>
      <point x="671" y="37"/>
      <point x="607" y="23"/>
      <point x="582" y="23" type="curve" smooth="yes"/>
      <point x="444" y="23"/>
      <point x="386" y="117"/>
      <point x="415" y="255" type="curve"/>
      <point x="415" y="258" type="line"/>
      <point x="446" y="405"/>
      <point x="526" y="468"/>
      <point x="628" y="471" type="curve"/>
      <point x="733" y="468"/>
      <point x="784" y="401"/>
      <point x="762" y="293" type="curve" smooth="yes"/>
      <point x="760" y="283"/>
      <point x="757" y="272"/>
      <point x="754" y="263" type="curve"/>
      <point x="777" y="237" type="line"/>
      <point x="782" y="251"/>
      <point x="789" y="273"/>
      <point x="792" y="288" type="curve" smooth="yes"/>
      <point x="815" y="403"/>
      <point x="760" y="503"/>
      <point x="630" y="503" type="curve" smooth="yes"/>
      <point x="508" y="503"/>
      <point x="417" y="413"/>
      <point x="387" y="271" type="curve" smooth="yes"/>
      <point x="352" y="105"/>
      <point x="425" y="-9"/>
    </contour>
    <contour>
      <point x="169" y="22" type="curve" smooth="yes"/>
      <point x="91" y="22"/>
      <point x="42" y="62"/>
      <point x="60" y="148" type="curve" smooth="yes"/>
      <point x="74" y="215"/>
      <point x="142" y="231"/>
      <point x="218" y="246" type="curve" smooth="yes"/>
      <point x="338" y="270"/>
      <point x="369" y="280"/>
      <point x="390" y="288" type="curve"/>
      <point x="359" y="145" type="line"/>
      <point x="285" y="66"/>
      <point x="210" y="22"/>
    </contour>
    <contour>
      <point x="168" y="-9" type="curve" smooth="yes"/>
      <point x="236" y="-9"/>
      <point x="318" y="57"/>
      <point x="391" y="138" type="curve"/>
      <point x="401" y="250" type="line"/>
      <point x="427" y="318" type="line"/>
      <point x="450" y="427"/>
      <point x="403" y="504"/>
      <point x="287" y="504" type="curve" smooth="yes"/>
      <point x="252" y="504"/>
      <point x="167" y="481"/>
      <point x="122" y="469" type="curve"/>
      <point x="117" y="431" type="line"/>
      <point x="196" y="454"/>
      <point x="263" y="472"/>
      <point x="285" y="472" type="curve" smooth="yes"/>
      <point x="376" y="472"/>
      <point x="423" y="427"/>
      <point x="395" y="312" type="curve"/>
      <point x="214" y="276" type="line" smooth="yes"/>
      <point x="132" y="260"/>
      <point x="50" y="241"/>
      <point x="29" y="148" type="curve" smooth="yes"/>
      <point x="8" y="56"/>
      <point x="69" y="-9"/>
    </contour>
    <contour>
      <point x="394" y="237" type="line"/>
      <point x="777" y="237" type="line"/>
      <point x="783" y="268" type="line"/>
      <point x="762" y="267" type="line"/>
      <point x="400" y="267" type="line"/>
    </contour>
  </outline>
</glyph>
<glyph name="eth" format="2">
  <advance width="588"/>
  <unicode hex="00F0"/>
  <outline>
    <contour>
      <point x="271" y="-9" type="curve" smooth="yes"/>
      <point x="404" y="-9"/>
      <point x="498" y="97"/>
      <point x="534" y="275" type="curve" smooth="yes"/>
      <point x="563" y="420"/>
      <point x="535" y="537"/>
      <point x="472" y="634" type="curve"/>
      <point x="437" y="677"/>
      <point x="402" y="716"/>
      <point x="373" y="750" type="curve"/>
      <point x="338" y="734" type="line"/>
      <point x="372" y="699"/>
      <point x="407" y="662"/>
      <point x="439" y="628" type="curve"/>
      <point x="507" y="531"/>
      <point x="530" y="416"/>
      <point x="503" y="281" type="curve" smooth="yes"/>
      <point x="470" y="119"/>
      <point x="393" y="26"/>
      <point x="272" y="23" type="curve"/>
      <point x="129" y="26"/>
      <point x="71" y="132"/>
      <point x="97" y="266" type="curve" smooth="yes"/>
      <point x="119" y="369"/>
      <point x="188" y="452"/>
      <point x="310" y="455" type="curve"/>
      <point x="390" y="454"/>
      <point x="471" y="407"/>
      <point x="517" y="336" type="curve"/>
      <point x="522" y="352"/>
      <point x="525" y="372"/>
      <point x="530" y="394" type="curve"/>
      <point x="508" y="395" type="line"/>
      <point x="460" y="448"/>
      <point x="377" y="487"/>
      <point x="311" y="487" type="curve" smooth="yes"/>
      <point x="185" y="487"/>
      <point x="93" y="398"/>
      <point x="66" y="271" type="curve" smooth="yes"/>
      <point x="35" y="123"/>
      <point x="115" y="-9"/>
    </contour>
    <contour>
      <point x="260" y="566" type="line"/>
      <point x="318" y="583"/>
      <point x="372" y="599"/>
      <point x="415" y="612" type="curve"/>
      <point x="461" y="625" type="line"/>
      <point x="507" y="637"/>
      <point x="558" y="650"/>
      <point x="617" y="665" type="curve"/>
      <point x="612" y="698" type="line"/>
      <point x="553" y="681"/>
      <point x="502" y="666"/>
      <point x="457" y="653" type="curve"/>
      <point x="410" y="640" type="line"/>
      <point x="365" y="628"/>
      <point x="312" y="614"/>
      <point x="255" y="599" type="curve"/>
    </contour>
  </outline>
</glyph>
<glyph name="dcroat" format="2">
  <advance width="572"/>
  <unicode hex="0111"/>
  <outline>
    <contour>
      <point x="333" y="610" type="line"/>
      <point x="388" y="611"/>
      <point x="430" y="611"/>
      <point x="483" y="612" type="curve"/>
      <point x="525" y="612" type="line"/>
      <point x="576" y="611"/>
      <point x="618" y="611"/>
      <point x="673" y="610" type="curve"/>
      <point x="680" y="640" type="line"/>
      <point x="625" y="640"/>
      <point x="574" y="640"/>
      <point x="531" y="640" type="curve"/>
      <point x="489" y="640" type="line"/>
      <point x="437" y="641"/>
      <point x="395" y="641"/>
      <point x="340" y="642" type="curve"/>
    </contour>
    <contour>
      <point x="252" y="-9" type="curve" smooth="yes"/>
      <point x="297" y="-9"/>
      <point x="370" y="30"/>
      <point x="417" y="79" type="curve"/>
      <point x="423" y="79" type="line"/>
      <point x="405" y="0" type="line"/>
      <point x="435" y="0" type="line"/>
      <point x="450" y="75"/>
      <point x="463" y="140"/>
      <point x="479" y="221" type="curve"/>
      <point x="537" y="494" type="line"/>
      <point x="556" y="579"/>
      <point x="574" y="658"/>
      <point x="594" y="740" type="curve"/>
      <point x="552" y="729" type="line"/>
      <point x="538" y="657"/>
      <point x="523" y="579"/>
      <point x="507" y="494" type="curve"/>
      <point x="493" y="425" type="line"/>
      <point x="487" y="425" type="line"/>
      <point x="445" y="460"/>
      <point x="365" y="504"/>
      <point x="310" y="504" type="curve" smooth="yes"/>
      <point x="188" y="504"/>
      <point x="98" y="419"/>
      <point x="68" y="275" type="curve" smooth="yes"/>
      <point x="37" y="125"/>
      <point x="99" y="-9"/>
    </contour>
    <contour>
      <point x="253" y="23" type="curve"/>
      <point x="118" y="25"/>
      <point x="70" y="136"/>
      <point x="99" y="271" type="curve" smooth="yes"/>
      <point x="124" y="388"/>
      <point x="189" y="469"/>
      <point x="310" y="472" type="curve"/>
      <point x="358" y="471"/>
      <point x="434" y="431"/>
      <point x="484" y="390" type="curve"/>
      <point x="431" y="136" type="line"/>
      <point x="382" y="76"/>
      <point x="306" y="25"/>
    </contour>
  </outline>
</glyph>
<glyph name="hbar" format="2">
  <advance width="568"/>
  <unicode hex="0127"/>
  <outline>
    <contour>
      <point x="70" y="610" type="line"/>
      <point x="125" y="611"/>
      <point x="166" y="611"/>
      <point x="219" y="612" type="curve"/>
      <point x="261" y="612" type="line"/>
      <point x="312" y="611"/>
      <point x="355" y="611"/>
      <point x="410" y="610" type="curve"/>
      <point x="417" y="642" type="line"/>
      <point x="362" y="641"/>
      <point x="319" y="641"/>
      <point x="267" y="640" type="curve"/>
      <point x="225" y="640" type="line"/>
      <point x="173" y="640"/>
      <point x="131" y="640"/>
      <point x="76" y="640" type="curve"/>
    </contour>
    <contour>
      <point x="48" y="0" type="curve"/>
      <point x="83" y="0" type="line"/>
      <point x="98" y="75"/>
      <point x="111" y="140"/>
      <point x="128" y="221" type="curve"/>
      <point x="157" y="354" type="line"/>
      <point x="229" y="421"/>
      <point x="314" y="472"/>
      <point x="361" y="472" type="curve" smooth="yes"/>
      <point x="458" y="472"/>
      <point x="484" y="416"/>
      <point x="462" y="313" type="curve"/>
      <point x="443" y="221" type="line"/>
      <point x="424" y="140"/>
      <point x="410" y="75"/>
      <point x="393" y="0" type="curve"/>
      <point x="428" y="0" type="line"/>
      <point x="443" y="75"/>
      <point x="456" y="140"/>
      <point x="473" y="221" type="curve"/>
      <point x="481" y="259"/>
      <point x="487" y="284"/>
      <point x="493" y="311" type="curve" smooth="yes"/>
      <point x="520" y="433"/>
      <point x="474" y="504"/>
      <point x="363" y="504" type="curve" smooth="yes"/>
      <point x="303" y="504"/>
      <point x="219" y="445"/>
      <point x="173" y="406" type="curve"/>
      <point x="168" y="406" type="line"/>
      <point x="186" y="494" type="line"/>
      <point x="205" y="579"/>
      <point x="223" y="658"/>
      <point x="243" y="740" type="curve"/>
      <point x="201" y="729" type="line"/>
      <point x="187" y="657"/>
      <point x="172" y="579"/>
      <point x="156" y="494" type="curve"/>
      <point x="98" y="221" type="line"/>
      <point x="79" y="140"/>
      <point x="65" y="75"/>
    </contour>
  </outline>
</glyph>
<glyph name="Lslash" format="2">
  <advance width="566"/>
  <unicode hex="0141"/>
  <outline>
    <contour>
      <point x="56" y="0" type="curve"/>
      <point x="93" y="0" type="line"/>
      <point x="94" y="4" type="line"/>
      <point x="110" y="85"/>
      <point x="123" y="154"/>
      <point x="141" y="242" type="curve"/>
      <point x="190" y="473" type="line"/>
      <point x="210" y="563"/>
      <point x="225" y="632"/>
      <point x="243" y="713" type="curve"/>
      <point x="206" y="713" type="line"/>
      <point x="190" y="634"/>
      <point x="176" y="562"/>
      <point x="158" y="473" type="curve"/>
      <point x="108" y="238" type="line"/>
      <point x="89" y="151"/>
      <point x="74" y="83"/>
    </contour>
    <contour>
      <point x="10" y="292" type="line"/>
      <point x="75" y="311"/>
      <point x="135" y="328"/>
      <point x="189" y="344" type="curve"/>
      <point x="239" y="358" type="line"/>
      <point x="292" y="372"/>
      <point x="354" y="389"/>
      <point x="418" y="406" type="curve"/>
      <point x="415" y="440" type="line"/>
      <point x="350" y="421"/>
      <point x="291" y="404"/>
      <point x="236" y="388" type="curve"/>
      <point x="186" y="374" type="line"/>
      <point x="131" y="359"/>
      <point x="74" y="344"/>
      <point x="7" y="326" type="curve"/>
    </contour>
    <contour>
      <point x="84" y="0" type="line"/>
      <point x="476" y="0" type="line"/>
      <point x="483" y="35" type="line"/>
      <point x="399" y="34"/>
      <point x="328" y="33"/>
      <point x="205" y="31" type="curve"/>
      <point x="91" y="31" type="line"/>
    </contour>
  </outline>
</glyph>
<glyph name="eng" format="2">
  <advance width="572"/>
  <unicode hex="014B"/>
  <outline>
    <contour>
      <point x="276" y="-194" type="curve"/>
      <point x="321" y="-192" type="line"/>
      <point x="343" y="-153"/>
      <point x="430" y="-15"/>
      <point x="434" y="5" type="curve" smooth="yes"/>
      <point x="449" y="78"/>
      <point x="463" y="143"/>
      <point x="490" y="271" type="curve"/>
      <point x="494" y="288"/>
      <point x="496" y="299"/>
      <point x="499" y="311" type="curve" smooth="yes"/>
      <point x="526" y="433"/>
      <point x="480" y="504"/>
      <point x="369" y="504" type="curve" smooth="yes"/>
      <point x="309" y="504"/>
      <point x="222" y="444"/>
      <point x="176" y="405" type="curve"/>
      <point x="171" y="405" type="line"/>
      <point x="187" y="497" type="line"/>
      <point x="153" y="494" type="line"/>
      <point x="145" y="443"/>
      <point x="138" y="390"/>
      <point x="130" y="342" type="curve"/>
      <point x="104" y="221" type="line"/>
      <point x="85" y="140"/>
      <point x="71" y="75"/>
      <point x="54" y="0" type="curve"/>
      <point x="89" y="0" type="line"/>
      <point x="104" y="75"/>
      <point x="117" y="140"/>
      <point x="134" y="221" type="curve"/>
      <point x="163" y="354" type="line"/>
      <point x="235" y="421"/>
      <point x="320" y="472"/>
      <point x="367" y="472" type="curve" smooth="yes"/>
      <point x="464" y="472"/>
      <point x="490" y="416"/>
      <point x="468" y="313" type="curve"/>
      <point x="449" y="221" type="line"/>
      <point x="400" y="0" type="line"/>
      <point x="354" y="-75"/>
      <point x="325" y="-120"/>
    </contour>
  </outline>
</glyph>
<glyph name="Schwa" format="2">
  <advance width="793"/>
  <unicode hex="018F"/>
  <outline>
    <contour>
      <point x="384" y="-9" type="curve" smooth="yes"/>
      <point x="567" y="-9"/>
      <point x="707" y="124"/>
      <point x="746" y="308" type="curve" smooth="yes"/>
      <point x="793" y="531"/>
      <point x="668" y="725"/>
      <point x="447" y="725" type="curve" smooth="yes"/>
      <point x="377" y="725"/>
      <point x="261" y="672"/>
      <point x="180" y="630" type="curve"/>
      <point x="181" y="586" type="line"/>
      <point x="291" y="652"/>
      <point x="394" y="692"/>
      <point x="447" y="692" type="curve"/>
      <point x="635" y="688"/>
      <point x="742" y="546"/>
      <point x="722" y="362" type="curve"/>
      <point x="722" y="349" type="line"/>
      <point x="691" y="158"/>
      <point x="571" y="28"/>
      <point x="384" y="24" type="curve"/>
      <point x="171" y="28"/>
      <point x="80" y="184"/>
      <point x="118" y="358" type="curve"/>
      <point x="106" y="347" type="line"/>
      <point x="735" y="347" type="line"/>
      <point x="742" y="378" type="line"/>
      <point x="90" y="378" type="line"/>
      <point x="85" y="358" type="line"/>
      <point x="46" y="166"/>
      <point x="155" y="-9"/>
    </contour>
  </outline>
</glyph>
<glyph name="florin" format="2">
  <advance width="515"/>
  <unicode hex="0192"/>
  <outline>
    <contour>
      <point x="26" y="-119" type="curve" smooth="yes"/>
      <point x="108" y="-119"/>
      <point x="170" y="-80"/>
      <point x="201" y="54" type="curve" smooth="yes"/>
      <point x="224" y="153"/>
      <point x="245" y="252"/>
      <point x="268" y="351" type="curve"/>
      <point x="271" y="365" type="line"/>
      <point x="283" y="417"/>
      <point x="294" y="470"/>
      <point x="306" y="522" type="curve" smooth="yes"/>
      <point x="327" y="615"/>
      <point x="378" y="664"/>
      <point x="475" y="664" type="curve" smooth="yes"/>
      <point x="482" y="664"/>
      <point x="517" y="657"/>
      <point x="545" y="651" type="curve"/>
      <point x="555" y="684" type="line"/>
      <point x="527" y="690"/>
      <point x="487" y="696"/>
      <point x="479" y="696" type="curve" smooth="yes"/>
      <point x="386" y="696"/>
      <point x="306" y="661"/>
      <point x="275" y="523" type="curve" smooth="yes"/>
      <point x="240" y="367"/>
      <point x="205" y="212"/>
      <point x="170" y="56" type="curve" smooth="yes"/>
      <point x="149" y="-39"/>
      <point x="108" y="-87"/>
      <point x="31" y="-87" type="curve" smooth="yes"/>
      <point x="24" y="-87"/>
      <point x="-12" y="-80"/>
      <point x="-40" y="-74" type="curve"/>
      <point x="-50" y="-107" type="line"/>
      <point x="-22" y="-113"/>
      <point x="18" y="-119"/>
    </contour>
    <contour>
      <point x="82" y="338" type="line"/>
      <point x="141" y="339"/>
      <point x="208" y="340"/>
      <point x="243" y="340" type="curve"/>
      <point x="333" y="340" type="line"/>
      <point x="368" y="340"/>
      <point x="435" y="339"/>
      <point x="492" y="338" type="curve"/>
      <point x="499" y="370" type="line"/>
      <point x="441" y="369"/>
      <point x="374" y="368"/>
      <point x="339" y="368" type="curve"/>
      <point x="249" y="368" type="line"/>
      <point x="214" y="368"/>
      <point x="147" y="369"/>
      <point x="89" y="370" type="curve"/>
    </contour>
  </outline>
</glyph>
<glyph name="jdotless" format="2">
  <advance width="238"/>
  <unicode hex="0237"/>
  <anchor x="27" y="-192" name="bottom"/>
  <anchor x="170" y="494" name="top"/>
  <outline>
    <contour>
      <point x="-74" y="-194" type="curve"/>
      <point x="-29" y="-192" type="line"/>
      <point x="-7" y="-153"/>
      <point x="80" y="-15"/>
      <point x="84" y="5" type="curve" smooth="yes"/>
      <point x="100" y="78"/>
      <point x="112" y="143"/>
      <point x="139" y="271" type="curve"/>
      <point x="156" y="352"/>
      <point x="171" y="419"/>
      <point x="190" y="494" type="curve"/>
      <point x="154" y="494" type="line"/>
      <point x="141" y="419"/>
      <point x="127" y="352"/>
      <point x="109" y="271" type="curve"/>
      <point x="99" y="221" type="line"/>
      <point x="50" y="0" type="line"/>
      <point x="4" y="-75"/>
      <point x="-25" y="-120"/>
    </contour>
  </outline>
</glyph>
<glyph name="circumflexcomb" format="2">
  <unicode hex="0302"/>
  <anchor x="352" y="494" name="_top"/>
  <anchor x="404" y="745" name="top"/>
  <outline>
    <contour>
      <point x="505" y="585" type="curve"/>
      <point x="535" y="586" type="line"/>
      <point x="500" y="649"/>
      <point x="465" y="714"/>
      <point x="430" y="777" type="curve"/>
      <point x="391" y="777" type="line"/>
      <point x="427" y="712"/>
      <point x="467" y="649"/>
    </contour>
    <contour>
      <point x="205" y="587" type="curve"/>
      <point x="242" y="587" type="line"/>
      <point x="308" y="651"/>
      <point x="369" y="712"/>
      <point x="430" y="777" type="curve"/>
      <point x="385" y="777" type="line"/>
      <point x="325" y="713"/>
      <point x="266" y="652"/>
    </contour>
  </outline>
</glyph>
<glyph name="dieresiscomb" format="2">
  <unicode hex="0308"/>
  <anchor x="351" y="494" name="_top"/>
  <anchor x="387" y="675" name="top"/>
  <outline>
    <contour>
      <point x="477" y="628" type="curve" smooth="yes"/>
      <point x="501" y="628"/>
      <point x="515" y="640"/>
      <point x="521" y="671" type="curve" smooth="yes"/>
      <point x="526" y="698"/>
      <point x="516" y="711"/>
      <point x="494" y="711" type="curve" smooth="yes"/>
      <point x="471" y="711"/>
      <point x="458" y="705"/>
      <point x="452" y="681" type="curve" smooth="yes"/>
      <point x="443" y="647"/>
      <point x="453" y="628"/>
    </contour>
    <contour>
      <point x="277" y="628" type="curve" smooth="yes"/>
      <point x="301" y="628"/>
      <point x="315" y="640"/>
      <point x="321" y="671" type="curve" smooth="yes"/>
      <point x="326" y="698"/>
      <point x="316" y="711"/>
      <point x="294" y="711" type="curve" smooth="yes"/>
      <point x="271" y="711"/>
      <point x="258" y="705"/>
      <point x="252" y="681" type="curve" smooth="yes"/>
      <point x="243" y="647"/>
      <point x="253" y="628"/>
    </contour>
  </outline>
</glyph>
<glyph name="hookabovecomb" format="2">
  <unicode hex="0309"/>
  <anchor x="352" y="494" name="_top"/>
  <anchor x="401" y="733" name="top"/>
  <outline>
    <contour>
      <point x="350" y="586" type="line"/>
      <point x="380" y="586" type="line"/>
      <point x="388" y="621" type="line"/>
      <point x="433" y="636"/>
      <point x="481" y="658"/>
      <point x="493" y="711" type="curve" smooth="yes"/>
      <point x="504" y="761"/>
      <point x="468" y="796"/>
      <point x="417" y="796" type="curve" smooth="yes"/>
      <point x="399" y="796"/>
      <point x="348" y="781"/>
      <point x="322" y="773" type="curve"/>
      <point x="317" y="739" type="line"/>
      <point x="361" y="753"/>
      <point x="404" y="765"/>
      <point x="414" y="765" type="curve"/>
      <point x="450" y="764"/>
      <point x="471" y="748"/>
      <point x="464" y="715" type="curve" smooth="yes"/>
      <point x="457" y="681"/>
      <point x="421" y="656"/>
      <point x="361" y="639" type="curve"/>
    </contour>
  </outline>
</glyph>
<glyph name="hungarumlautcomb" format="2">
  <unicode hex="030B"/>
  <anchor x="352" y="494" name="_top"/>
  <anchor x="402" y="736" name="top"/>
  <outline>
    <contour>
      <point x="415" y="586" type="curve"/>
      <point x="452" y="587" type="line"/>
      <point x="518" y="651"/>
      <point x="581" y="714"/>
      <point x="644" y="779" type="curve"/>
      <point x="595" y="778" type="line"/>
      <point x="535" y="715"/>
      <point x="476" y="651"/>
    </contour>
    <contour>
      <point x="248" y="586" type="curve"/>
      <point x="283" y="587" type="line"/>
      <point x="343" y="651"/>
      <point x="399" y="714"/>
      <point x="455" y="779" type="curve"/>
      <point x="409" y="778" type="line"/>
      <point x="356" y="715"/>
      <point x="303" y="651"/>
    </contour>
  </outline>
</glyph>
<glyph name="dieresisbelowcomb" format="2">
  <unicode hex="0324"/>
  <anchor x="248" y="0" name="_bottom"/>
  <outline>
    <contour>
      <point x="106" y="-198" type="curve" smooth="yes"/>
      <point x="130" y="-198"/>
      <point x="144" y="-186"/>
      <point x="150" y="-155" type="curve" smooth="yes"/>
      <point x="155" y="-128"/>
      <point x="145" y="-115"/>
      <point x="123" y="-115" type="curve" smooth="yes"/>
      <point x="100" y="-115"/>
      <point x="87" y="-121"/>
      <point x="81" y="-145" type="curve" smooth="yes"/>
      <point x="72" y="-179"/>
      <point x="82" y="-198"/>
    </contour>
    <contour>
      <point x="306" y="-198" type="curve" smooth="yes"/>
      <point x="330" y="-198"/>
      <point x="344" y="-186"/>
      <point x="350" y="-155" type="curve" smooth="yes"/>
      <point x="355" y="-128"/>
      <point x="345" y="-115"/>
      <point x="323" y="-115" type="curve" smooth="yes"/>
      <point x="300" y="-115"/>
      <point x="287" y="-121"/>
      <point x="281" y="-145" type="curve" smooth="yes"/>
      <point x="272" y="-179"/>
      <point x="282" y="-198"/>
    </contour>
  </outline>
</glyph>
<glyph name="macronbelowcomb" format="2">
  <unicode hex="0331"/>
  <anchor x="248" y="0" name="_bottom"/>
  <anchor x="248" y="0" name="bottom"/>
  <outline>
    <contour>
      <point x="67" y="-168" type="line"/>
      <point x="111" y="-168"/>
      <point x="160" y="-167"/>
      <point x="213" y="-167" type="curve"/>
      <point x="266" y="-167"/>
      <point x="315" y="-168"/>
      <point x="359" y="-168" type="curve"/>
      <point x="365" y="-138" type="line"/>
      <point x="321" y="-138"/>
      <point x="272" y="-139"/>
      <point x="219" y="-139" type="curve"/>
      <point x="166" y="-139"/>
      <point x="117" y="-138"/>
      <point x="73" y="-138" type="curve"/>
    </contour>
  </outline>
</glyph>
<glyph name="strokelongcomb" format="2">
  <unicode hex="0336"/>
  <anchor x="328" y="357" name="_center"/>
  <outline>
    <contour>
      <point x="19" y="530" type="line"/>
      <point x="86" y="531"/>
      <point x="148" y="531"/>
      <point x="202" y="532" type="curve"/>
      <point x="528" y="532" type="line"/>
      <point x="582" y="531"/>
      <point x="644" y="531"/>
      <point x="709" y="530" type="curve"/>
      <point x="717" y="564" type="line"/>
      <point x="650" y="563"/>
      <point x="588" y="563"/>
      <point x="534" y="562" type="curve"/>
      <point x="208" y="562" type="line"/>
      <point x="154" y="563"/>
      <point x="92" y="563"/>
      <point x="27" y="564" type="curve"/>
    </contour>
  </outline>
</glyph>
<glyph name="slashshortcomb" format="2">
  <unicode hex="0337"/>
  <anchor x="298" y="244" name="_center"/>
  <outline>
    <contour>
      <point x="62" y="-60" type="line"/>
      <point x="117" y="4"/>
      <point x="165" y="61"/>
      <point x="225" y="131" type="curve"/>
      <point x="386" y="316" type="line"/>
      <point x="447" y="385"/>
      <point x="502" y="447"/>
      <point x="557" y="509" type="curve"/>
      <point x="529" y="528" type="line"/>
      <point x="474" y="464"/>
      <point x="427" y="409"/>
      <point x="365" y="336" type="curve"/>
      <point x="202" y="148" type="line"/>
      <point x="141" y="80"/>
      <point x="93" y="26"/>
      <point x="34" y="-40" type="curve"/>
    </contour>
  </outline>
</glyph>
<glyph name="slashlongcomb" format="2">
  <unicode hex="0338"/>
  <anchor x="307" y="357" name="_center"/>
  <outline>
    <contour>
      <point x="-21" y="-58" type="line"/>
      <point x="53" y="28"/>
      <point x="122" y="108"/>
      <point x="204" y="203" type="curve"/>
      <point x="429" y="463" type="line"/>
      <point x="512" y="557"/>
      <point x="580" y="634"/>
      <point x="658" y="722" type="curve"/>
      <point x="630" y="745" type="line"/>
      <point x="553" y="655"/>
      <point x="487" y="578"/>
      <point x="403" y="480" type="curve"/>
      <point x="181" y="224" type="line"/>
      <point x="98" y="131"/>
      <point x="30" y="54"/>
      <point x="-48" y="-33" type="curve"/>
    </contour>
  </outline>
</glyph>
<glyph name="colonsign" format="2">
  <advance width="656"/>
  <unicode hex="20A1"/>
  <outline>
    <contour>
      <point x="363" y="-9" type="curve" smooth="yes"/>
      <point x="408" y="-9"/>
      <point x="498" y="18"/>
      <point x="555" y="39" type="curve"/>
      <point x="557" y="81" type="line"/>
      <point x="487" y="47"/>
      <point x="393" y="23"/>
      <point x="362" y="23" type="curve"/>
      <point x="156" y="25"/>
      <point x="79" y="196"/>
      <point x="117" y="377" type="curve" smooth="yes"/>
      <point x="158" y="571"/>
      <point x="288" y="662"/>
      <point x="464" y="664" type="curve"/>
      <point x="491" y="664"/>
      <point x="584" y="635"/>
      <point x="674" y="600" type="curve"/>
      <point x="686" y="633" type="line"/>
      <point x="630" y="653"/>
      <point x="512" y="696"/>
      <point x="466" y="696" type="curve" smooth="yes"/>
      <point x="276" y="696"/>
      <point x="130" y="590"/>
      <point x="86" y="383" type="curve" smooth="yes"/>
      <point x="44" y="183"/>
      <point x="139" y="-9"/>
    </contour>
    <contour>
      <point x="99" y="-137" type="curve"/>
      <point x="134" y="-137" type="line"/>
      <point x="193" y="4"/>
      <point x="256" y="154"/>
      <point x="272" y="192" type="curve"/>
      <point x="392" y="474" type="line"/>
      <point x="408" y="511"/>
      <point x="475" y="666"/>
      <point x="534" y="803" type="curve"/>
      <point x="499" y="803" type="line"/>
      <point x="441" y="665"/>
      <point x="377" y="512"/>
      <point x="361" y="474" type="curve"/>
      <point x="241" y="192" type="line"/>
      <point x="225" y="155"/>
      <point x="159" y="2"/>
    </contour>
    <contour>
      <point x="226" y="-137" type="curve"/>
      <point x="261" y="-137" type="line"/>
      <point x="320" y="4"/>
      <point x="383" y="154"/>
      <point x="399" y="192" type="curve"/>
      <point x="519" y="474" type="line"/>
      <point x="535" y="511"/>
      <point x="602" y="666"/>
      <point x="661" y="803" type="curve"/>
      <point x="626" y="803" type="line"/>
      <point x="568" y="665"/>
      <point x="504" y="512"/>
      <point x="488" y="474" type="curve"/>
      <point x="368" y="192" type="line"/>
      <point x="352" y="155"/>
      <point x="286" y="2"/>
    </contour>
  </outline>
</glyph>
<glyph name="naira" format="2">
  <advance width="785"/>
  <unicode hex="20A6"/>
  <outline>
    <contour>
      <point x="82" y="0" type="curve"/>
      <point x="118" y="0" type="line"/>
      <point x="134" y="80"/>
      <point x="147" y="145"/>
      <point x="164" y="230" type="curve"/>
      <point x="250" y="633" type="line"/>
      <point x="254" y="633" type="line"/>
      <point x="376" y="384" type="line"/>
      <point x="449" y="233"/>
      <point x="508" y="110"/>
      <point x="561" y="0" type="curve"/>
      <point x="598" y="0" type="line"/>
      <point x="614" y="79"/>
      <point x="627" y="145"/>
      <point x="644" y="229" type="curve"/>
      <point x="692" y="455" type="line"/>
      <point x="711" y="539"/>
      <point x="727" y="609"/>
      <point x="744" y="684" type="curve"/>
      <point x="708" y="684" type="line"/>
      <point x="693" y="610"/>
      <point x="678" y="538"/>
      <point x="661" y="454" type="curve"/>
      <point x="576" y="54" type="line"/>
      <point x="572" y="54" type="line"/>
      <point x="449" y="305" type="line"/>
      <point x="391" y="425"/>
      <point x="329" y="552"/>
      <point x="265" y="684" type="curve"/>
      <point x="228" y="684" type="line"/>
      <point x="213" y="610"/>
      <point x="198" y="539"/>
      <point x="181" y="455" type="curve"/>
      <point x="133" y="229" type="line"/>
      <point x="114" y="144"/>
      <point x="100" y="80"/>
    </contour>
    <contour>
      <point x="57" y="338" type="line"/>
      <point x="116" y="339"/>
      <point x="183" y="340"/>
      <point x="218" y="340" type="curve"/>
      <point x="608" y="340" type="line"/>
      <point x="643" y="340"/>
      <point x="710" y="339"/>
      <point x="767" y="338" type="curve"/>
      <point x="774" y="370" type="line"/>
      <point x="716" y="369"/>
      <point x="649" y="368"/>
      <point x="614" y="368" type="curve"/>
      <point x="224" y="368" type="line"/>
      <point x="189" y="368"/>
      <point x="122" y="369"/>
      <point x="64" y="370" type="curve"/>
    </contour>
  </outline>
</glyph>
<glyph name="dong" format="2">
  <advance width="560"/>
  <unicode hex="20AB"/>
  <outline>
    <contour>
      <point x="243" y="139" type="curve" smooth="yes"/>
      <point x="279" y="139"/>
      <point x="338" y="165"/>
      <point x="376" y="199" type="curve"/>
      <point x="382" y="199" type="line"/>
      <point x="373" y="146" type="line"/>
      <point x="402" y="146" type="line"/>
      <point x="414" y="207"/>
      <point x="423" y="255"/>
      <point x="436" y="321" type="curve"/>
      <point x="483" y="544" type="line"/>
      <point x="498" y="610"/>
      <point x="511" y="672"/>
      <point x="526" y="738" type="curve"/>
      <point x="489" y="732" type="line"/>
      <point x="478" y="675"/>
      <point x="466" y="609"/>
      <point x="453" y="543" type="curve"/>
      <point x="442" y="490" type="line"/>
      <point x="437" y="490" type="line"/>
      <point x="402" y="516"/>
      <point x="334" y="550"/>
      <point x="288" y="550" type="curve" smooth="yes"/>
      <point x="186" y="550"/>
      <point x="111" y="481"/>
      <point x="87" y="366" type="curve" smooth="yes"/>
      <point x="63" y="250"/>
      <point x="112" y="139"/>
    </contour>
    <contour>
      <point x="-3" y="-2" type="line"/>
      <point x="55" y="-1"/>
      <point x="122" y="0"/>
      <point x="157" y="0" type="curve"/>
      <point x="257" y="0" type="line"/>
      <point x="292" y="0"/>
      <point x="359" y="-1"/>
      <point x="417" y="-2" type="curve"/>
      <point x="424" y="30" type="line"/>
      <point x="366" y="29"/>
      <point x="298" y="28"/>
      <point x="263" y="28" type="curve"/>
      <point x="163" y="28" type="line"/>
      <point x="128" y="28"/>
      <point x="62" y="29"/>
      <point x="4" y="30" type="curve"/>
    </contour>
    <contour>
      <point x="246" y="169" type="curve"/>
      <point x="135" y="170"/>
      <point x="95" y="256"/>
      <point x="118" y="363" type="curve" smooth="yes"/>
      <point x="137" y="452"/>
      <point x="189" y="518"/>
      <point x="290" y="519" type="curve" smooth="yes"/>
      <point x="330" y="518"/>
      <point x="393" y="489"/>
      <point x="435" y="457" type="curve"/>
      <point x="391" y="247" type="line"/>
      <point x="351" y="209"/>
      <point x="290" y="171"/>
    </contour>
    <contour>
      <point x="273" y="638" type="line"/>
      <point x="331" y="639"/>
      <point x="398" y="640"/>
      <point x="434" y="640" type="curve"/>
      <point x="454" y="640" type="line"/>
      <point x="490" y="640"/>
      <point x="555" y="639"/>
      <point x="613" y="638" type="curve"/>
      <point x="620" y="670" type="line"/>
      <point x="562" y="669"/>
      <point x="495" y="668"/>
      <point x="459" y="668" type="curve"/>
      <point x="439" y="668" type="line"/>
      <point x="403" y="668"/>
      <point x="338" y="669"/>
      <point x="280" y="670" type="curve"/>
    </contour>
  </outline>
</glyph>
<glyph name="kip" format="2">
  <advance width="651"/>
  <unicode hex="20AD"/>
  <outline>
    <contour>
      <point x="515" y="0" type="curve"/>
      <point x="565" y="0" type="line"/>
      <point x="514" y="56"/>
      <point x="428" y="150"/>
      <point x="367" y="216" type="curve"/>
      <point x="239" y="359" type="line"/>
      <point x="245" y="346" type="line"/>
      <point x="415" y="476" type="line"/>
      <point x="501" y="541"/>
      <point x="595" y="611"/>
      <point x="691" y="684" type="curve"/>
      <point x="635" y="684" type="line"/>
      <point x="536" y="607"/>
      <point x="467" y="554"/>
      <point x="391" y="495" type="curve"/>
      <point x="226" y="368" type="line"/>
      <point x="186" y="368" type="line"/>
      <point x="180" y="340" type="line"/>
      <point x="216" y="340" type="line"/>
      <point x="350" y="189" type="line"/>
      <point x="399" y="133"/>
      <point x="454" y="70"/>
    </contour>
    <contour>
      <point x="82" y="0" type="curve"/>
      <point x="118" y="0" type="line"/>
      <point x="134" y="79"/>
      <point x="147" y="145"/>
      <point x="164" y="229" type="curve"/>
      <point x="212" y="455" type="line"/>
      <point x="231" y="539"/>
      <point x="247" y="609"/>
      <point x="264" y="684" type="curve"/>
      <point x="228" y="684" type="line"/>
      <point x="213" y="609"/>
      <point x="198" y="539"/>
      <point x="181" y="455" type="curve"/>
      <point x="133" y="229" type="line"/>
      <point x="114" y="145"/>
      <point x="100" y="79"/>
    </contour>
    <contour>
      <point x="57" y="338" type="line"/>
      <point x="116" y="339"/>
      <point x="183" y="340"/>
      <point x="218" y="340" type="curve"/>
      <point x="418" y="340" type="line"/>
      <point x="453" y="340"/>
      <point x="520" y="339"/>
      <point x="577" y="338" type="curve"/>
      <point x="584" y="370" type="line"/>
      <point x="526" y="369"/>
      <point x="459" y="368"/>
      <point x="424" y="368" type="curve"/>
      <point x="224" y="368" type="line"/>
      <point x="189" y="368"/>
      <point x="122" y="369"/>
      <point x="64" y="370" type="curve"/>
    </contour>
  </outline>
</glyph>
<glyph name="peso" format="2">
  <advance width="701"/>
  <unicode hex="20B1"/>
  <outline>
    <contour>
      <point x="173" y="298" type="line"/>
      <point x="211" y="298"/>
      <point x="295" y="297"/>
      <point x="343" y="297" type="curve"/>
      <point x="541" y="297"/>
      <point x="591" y="369"/>
      <point x="616" y="485" type="curve" smooth="yes"/>
      <point x="641" y="602"/>
      <point x="576" y="685"/>
      <point x="431" y="685" type="curve"/>
      <point x="338" y="684"/>
      <point x="278" y="684"/>
      <point x="228" y="684" type="curve"/>
      <point x="243" y="654" type="line"/>
      <point x="427" y="654" type="line" smooth="yes"/>
      <point x="513" y="654"/>
      <point x="613" y="627"/>
      <point x="584" y="489" type="curve" smooth="yes"/>
      <point x="555" y="351"/>
      <point x="482" y="328"/>
      <point x="346" y="328" type="curve" smooth="yes"/>
      <point x="180" y="328" type="line"/>
    </contour>
    <contour>
      <point x="98" y="528" type="line"/>
      <point x="156" y="529"/>
      <point x="223" y="530"/>
      <point x="258" y="530" type="curve"/>
      <point x="563" y="530" type="line"/>
      <point x="598" y="530"/>
      <point x="665" y="529"/>
      <point x="723" y="528" type="curve"/>
      <point x="730" y="560" type="line"/>
      <point x="671" y="559"/>
      <point x="604" y="558"/>
      <point x="569" y="558" type="curve"/>
      <point x="264" y="558" type="line"/>
      <point x="229" y="558"/>
      <point x="162" y="559"/>
      <point x="105" y="560" type="curve"/>
    </contour>
    <contour>
      <point x="82" y="0" type="curve"/>
      <point x="118" y="0" type="line"/>
      <point x="134" y="80"/>
      <point x="147" y="145"/>
      <point x="164" y="230" type="curve"/>
      <point x="211" y="452" type="line"/>
      <point x="231" y="542"/>
      <point x="245" y="606"/>
      <point x="262" y="682" type="curve"/>
      <point x="228" y="684" type="line"/>
      <point x="213" y="610"/>
      <point x="198" y="539"/>
      <point x="181" y="455" type="curve"/>
      <point x="133" y="229" type="line"/>
      <point x="114" y="144"/>
      <point x="100" y="80"/>
    </contour>
    <contour>
      <point x="76" y="428" type="line"/>
      <point x="135" y="429"/>
      <point x="202" y="430"/>
      <point x="237" y="430" type="curve"/>
      <point x="542" y="430" type="line"/>
      <point x="577" y="430"/>
      <point x="644" y="429"/>
      <point x="701" y="428" type="curve"/>
      <point x="708" y="460" type="line"/>
      <point x="650" y="459"/>
      <point x="583" y="458"/>
      <point x="548" y="458" type="curve"/>
      <point x="243" y="458" type="line"/>
      <point x="208" y="458"/>
      <point x="141" y="459"/>
      <point x="83" y="460" type="curve"/>
    </contour>
  </outline>
</glyph>
<glyph name="rupeeIndian" format="2">
  <advance width="575"/>
  <unicode hex="20B9"/>
  <outline>
    <contour>
      <point x="182" y="307" type="curve"/>
      <point x="377" y="307"/>
      <point x="433" y="375"/>
      <point x="457" y="489" type="curve" smooth="yes"/>
      <point x="472" y="557"/>
      <point x="454" y="615"/>
      <point x="404" y="649" type="curve"/>
      <point x="406" y="655" type="line"/>
      <point x="467" y="655" type="line"/>
      <point x="514" y="654"/>
      <point x="569" y="654"/>
      <point x="626" y="653" type="curve"/>
      <point x="633" y="684" type="line"/>
      <point x="153" y="684" type="line"/>
      <point x="146" y="653" type="line"/>
      <point x="187" y="654"/>
      <point x="227" y="655"/>
      <point x="267" y="655" type="curve"/>
      <point x="348" y="655"/>
      <point x="454" y="630"/>
      <point x="425" y="494" type="curve" smooth="yes"/>
      <point x="397" y="362"/>
      <point x="324" y="337"/>
      <point x="187" y="337" type="curve"/>
      <point x="151" y="337"/>
      <point x="114" y="338"/>
      <point x="80" y="339" type="curve"/>
      <point x="73" y="308" type="line"/>
      <point x="99" y="308" type="line"/>
      <point x="109" y="308" type="line"/>
      <point x="133" y="308"/>
      <point x="158" y="308"/>
    </contour>
    <contour>
      <point x="365" y="0" type="curve"/>
      <point x="412" y="0" type="line"/>
      <point x="359" y="55"/>
      <point x="287" y="128"/>
      <point x="231" y="186" type="curve"/>
      <point x="105" y="317" type="line"/>
      <point x="73" y="308" type="line"/>
      <point x="211" y="164" type="line"/>
      <point x="259" y="113"/>
      <point x="310" y="58"/>
    </contour>
    <contour>
      <point x="111" y="485" type="line"/>
      <point x="169" y="486"/>
      <point x="236" y="487"/>
      <point x="271" y="487" type="curve"/>
      <point x="431" y="487" type="line"/>
      <point x="466" y="487"/>
      <point x="533" y="486"/>
      <point x="591" y="485" type="curve"/>
      <point x="597" y="517" type="line"/>
      <point x="539" y="516"/>
      <point x="472" y="515"/>
      <point x="437" y="515" type="curve"/>
      <point x="277" y="515" type="line"/>
      <point x="242" y="515"/>
      <point x="175" y="516"/>
      <point x="117" y="517" type="curve"/>
    </contour>
  </outline>
</glyph>
<glyph name="liraTurkish" format="2">
  <advance width="646"/>
  <unicode hex="20BA"/>
  <outline>
    <contour>
      <point x="100" y="0" type="curve"/>
      <point x="127" y="0" type="line"/>
      <point x="136" y="4" type="line"/>
      <point x="151" y="83"/>
      <point x="164" y="145"/>
      <point x="182" y="229" type="curve"/>
      <point x="230" y="455" type="line"/>
      <point x="249" y="539"/>
      <point x="265" y="609"/>
      <point x="282" y="684" type="curve"/>
      <point x="246" y="684" type="line"/>
      <point x="231" y="609"/>
      <point x="216" y="539"/>
      <point x="199" y="455" type="curve"/>
      <point x="151" y="229" type="line"/>
      <point x="132" y="145"/>
      <point x="118" y="79"/>
    </contour>
    <contour>
      <point x="127" y="0" type="line"/>
      <point x="244" y="0" type="line" smooth="yes"/>
      <point x="397" y="0"/>
      <point x="501" y="71"/>
      <point x="566" y="201" type="curve"/>
      <point x="584" y="245"/>
      <point x="602" y="297"/>
      <point x="621" y="353" type="curve"/>
      <point x="586" y="353" type="line"/>
      <point x="569" y="301"/>
      <point x="554" y="257"/>
      <point x="540" y="217" type="curve"/>
      <point x="482" y="98"/>
      <point x="390" y="30"/>
      <point x="243" y="30" type="curve" smooth="yes"/>
      <point x="134" y="30" type="line"/>
    </contour>
    <contour>
      <point x="72" y="209" type="line"/>
      <point x="131" y="234"/>
      <point x="186" y="257"/>
      <point x="236" y="278" type="curve"/>
      <point x="299" y="304" type="line"/>
      <point x="350" y="324"/>
      <point x="403" y="345"/>
      <point x="461" y="368" type="curve"/>
      <point x="455" y="400" type="line"/>
      <point x="398" y="376"/>
      <point x="343" y="353"/>
      <point x="296" y="333" type="curve"/>
      <point x="225" y="304" type="line"/>
      <point x="179" y="286"/>
      <point x="123" y="264"/>
      <point x="64" y="241" type="curve"/>
    </contour>
    <contour>
      <point x="101" y="349" type="line"/>
      <point x="160" y="374"/>
      <point x="215" y="397"/>
      <point x="265" y="418" type="curve"/>
      <point x="328" y="444" type="line"/>
      <point x="379" y="464"/>
      <point x="432" y="485"/>
      <point x="490" y="508" type="curve"/>
      <point x="484" y="540" type="line"/>
      <point x="427" y="516"/>
      <point x="372" y="493"/>
      <point x="325" y="473" type="curve"/>
      <point x="254" y="444" type="line"/>
      <point x="208" y="426"/>
      <point x="152" y="404"/>
      <point x="93" y="381" type="curve"/>
    </contour>
  </outline>
</glyph>
<glyph name="manat" format="2">
  <advance width="773"/>
  <unicode hex="20BC"/>
  <outline>
    <contour>
      <point x="45" y="0" type="curve"/>
      <point x="81" y="0" type="line"/>
      <point x="99" y="88"/>
      <point x="113" y="156"/>
      <point x="132" y="249" type="curve"/>
      <point x="170" y="423"/>
      <point x="278" y="536"/>
      <point x="434" y="538" type="curve"/>
      <point x="605" y="536"/>
      <point x="672" y="391"/>
      <point x="629" y="187" type="curve"/>
      <point x="613" y="116"/>
      <point x="602" y="67"/>
      <point x="587" y="0" type="curve"/>
      <point x="623" y="0" type="line"/>
      <point x="635" y="61"/>
      <point x="646" y="116"/>
      <point x="659" y="182" type="curve"/>
      <point x="706" y="402"/>
      <point x="623" y="570"/>
      <point x="434" y="570" type="curve" smooth="yes"/>
      <point x="275" y="570"/>
      <point x="143" y="456"/>
      <point x="102" y="255" type="curve"/>
      <point x="81" y="161"/>
      <point x="65" y="90"/>
    </contour>
    <contour>
      <point x="317" y="0" type="curve"/>
      <point x="351" y="0" type="line"/>
      <point x="375" y="116"/>
      <point x="397" y="222"/>
      <point x="419" y="328" type="curve"/>
      <point x="434" y="397" type="line"/>
      <point x="458" y="506"/>
      <point x="480" y="607"/>
      <point x="506" y="725" type="curve"/>
      <point x="472" y="725" type="line"/>
      <point x="448" y="609"/>
      <point x="426" y="504"/>
      <point x="404" y="397" type="curve"/>
      <point x="389" y="328" type="line"/>
      <point x="365" y="219"/>
      <point x="343" y="118"/>
    </contour>
  </outline>
</glyph>
<glyph name="ruble" format="2">
  <advance width="701"/>
  <unicode hex="20BD"/>
  <outline>
    <contour>
      <point x="167" y="318" type="line"/>
      <point x="205" y="318"/>
      <point x="289" y="317"/>
      <point x="337" y="317" type="curve"/>
      <point x="535" y="317"/>
      <point x="585" y="389"/>
      <point x="608" y="495" type="curve" smooth="yes"/>
      <point x="631" y="602"/>
      <point x="566" y="685"/>
      <point x="421" y="685" type="curve"/>
      <point x="328" y="684"/>
      <point x="268" y="684"/>
      <point x="218" y="684" type="curve"/>
      <point x="233" y="654" type="line"/>
      <point x="417" y="654" type="line" smooth="yes"/>
      <point x="503" y="654"/>
      <point x="603" y="627"/>
      <point x="576" y="499" type="curve" smooth="yes"/>
      <point x="549" y="371"/>
      <point x="476" y="348"/>
      <point x="340" y="348" type="curve" smooth="yes"/>
      <point x="174" y="348" type="line"/>
    </contour>
    <contour>
      <point x="72" y="0" type="curve"/>
      <point x="108" y="0" type="line"/>
      <point x="124" y="80"/>
      <point x="137" y="145"/>
      <point x="154" y="230" type="curve"/>
      <point x="201" y="452" type="line"/>
      <point x="221" y="542"/>
      <point x="235" y="606"/>
      <point x="252" y="682" type="curve"/>
      <point x="218" y="684" type="line"/>
      <point x="203" y="610"/>
      <point x="188" y="539"/>
      <point x="171" y="455" type="curve"/>
      <point x="123" y="229" type="line"/>
      <point x="104" y="144"/>
      <point x="90" y="80"/>
    </contour>
    <contour>
      <point x="19" y="156" type="line"/>
      <point x="77" y="157"/>
      <point x="144" y="158"/>
      <point x="179" y="158" type="curve"/>
      <point x="209" y="158" type="line"/>
      <point x="244" y="158"/>
      <point x="311" y="157"/>
      <point x="369" y="156" type="curve"/>
      <point x="375" y="188" type="line"/>
      <point x="317" y="187"/>
      <point x="250" y="186"/>
      <point x="215" y="186" type="curve"/>
      <point x="185" y="186" type="line"/>
      <point x="150" y="186"/>
      <point x="83" y="187"/>
      <point x="25" y="188" type="curve"/>
    </contour>
  </outline>
</glyph>
<glyph name="partialdiff" format="2">
  <advance width="588"/>
  <unicode hex="2202"/>
  <outline>
    <contour>
      <point x="271" y="-9" type="curve" smooth="yes"/>
      <point x="404" y="-9"/>
      <point x="498" y="97"/>
      <point x="538" y="292" type="curve" smooth="yes"/>
      <point x="577" y="486"/>
      <point x="550" y="696"/>
      <point x="351" y="696" type="curve" smooth="yes"/>
      <point x="317" y="696"/>
      <point x="225" y="661"/>
      <point x="185" y="643" type="curve"/>
      <point x="185" y="603" type="line"/>
      <point x="256" y="637"/>
      <point x="330" y="664"/>
      <point x="351" y="664" type="curve"/>
      <point x="527" y="662"/>
      <point x="544" y="479"/>
      <point x="506" y="298" type="curve" smooth="yes"/>
      <point x="468" y="117"/>
      <point x="393" y="26"/>
      <point x="272" y="23" type="curve"/>
      <point x="128" y="26"/>
      <point x="71" y="132"/>
      <point x="96" y="261" type="curve" smooth="yes"/>
      <point x="116" y="365"/>
      <point x="189" y="442"/>
      <point x="310" y="445" type="curve"/>
      <point x="396" y="444"/>
      <point x="477" y="397"/>
      <point x="523" y="326" type="curve"/>
      <point x="528" y="342"/>
      <point x="531" y="362"/>
      <point x="536" y="384" type="curve"/>
      <point x="514" y="385" type="line"/>
      <point x="466" y="438"/>
      <point x="383" y="477"/>
      <point x="311" y="477" type="curve" smooth="yes"/>
      <point x="185" y="477"/>
      <point x="92" y="393"/>
      <point x="65" y="266" type="curve" smooth="yes"/>
      <point x="35" y="123"/>
      <point x="115" y="-9"/>
    </contour>
  </outline>
</glyph>
<glyph name="increment" format="2">
  <advance width="676"/>
  <unicode hex="2206"/>
  <outline>
    <contour>
      <point x="-13" y="0" type="line"/>
      <point x="23" y="0" type="line"/>
      <point x="32" y="22" type="line"/>
      <point x="81" y="104"/>
      <point x="137" y="198"/>
      <point x="183" y="275" type="curve"/>
      <point x="428" y="677" type="line"/>
      <point x="434" y="677" type="line"/>
      <point x="510" y="272" type="line"/>
      <point x="523" y="198"/>
      <point x="539" y="107"/>
      <point x="554" y="22" type="curve"/>
      <point x="552" y="0" type="line"/>
      <point x="583" y="0" type="line"/>
      <point x="590" y="29" type="line"/>
      <point x="577" y="96"/>
      <point x="562" y="172"/>
      <point x="549" y="239" type="curve"/>
      <point x="503" y="484" type="line"/>
      <point x="488" y="573"/>
      <point x="477" y="638"/>
      <point x="464" y="713" type="curve"/>
      <point x="409" y="713" type="line"/>
      <point x="366" y="641"/>
      <point x="327" y="575"/>
      <point x="275" y="487" type="curve"/>
      <point x="125" y="241" type="line"/>
      <point x="83" y="173"/>
      <point x="35" y="95"/>
      <point x="-7" y="27" type="curve"/>
    </contour>
    <contour>
      <point x="3" y="0" type="line"/>
      <point x="570" y="0" type="line"/>
      <point x="577" y="31" type="line"/>
      <point x="10" y="31" type="line"/>
    </contour>
  </outline>
</glyph>
<glyph name="divisionslash" format="2">
  <advance width="362"/>
  <unicode hex="2215"/>
  <outline>
    <contour>
      <point x="-14" y="0" type="curve"/>
      <point x="24" y="0" type="line"/>
      <point x="64" y="73"/>
      <point x="98" y="135"/>
      <point x="149" y="228" type="curve"/>
      <point x="286" y="474" type="line"/>
      <point x="340" y="570"/>
      <point x="375" y="632"/>
      <point x="421" y="713" type="curve"/>
      <point x="383" y="713" type="line"/>
      <point x="341" y="637"/>
      <point x="306" y="572"/>
      <point x="253" y="476" type="curve"/>
      <point x="115" y="228" type="line"/>
      <point x="63" y="136"/>
      <point x="27" y="73"/>
    </contour>
  </outline>
</glyph>
<glyph name="radical" format="2">
  <advance width="561"/>
  <unicode hex="221A"/>
  <outline>
    <contour>
      <point x="275" y="0" type="curve"/>
      <point x="316" y="0" type="line"/>
      <point x="349" y="74"/>
      <point x="375" y="133"/>
      <point x="418" y="229" type="curve"/>
      <point x="578" y="578" type="line"/>
      <point x="624" y="676"/>
      <point x="655" y="742"/>
      <point x="691" y="818" type="curve"/>
      <point x="653" y="818" type="line"/>
      <point x="619" y="742"/>
      <point x="589" y="676"/>
      <point x="545" y="578" type="curve"/>
      <point x="303" y="50" type="line"/>
      <point x="297" y="50" type="line"/>
      <point x="260" y="203" type="line"/>
      <point x="246" y="265"/>
      <point x="233" y="322"/>
      <point x="220" y="380" type="curve"/>
      <point x="186" y="380" type="line"/>
      <point x="223" y="228" type="line"/>
      <point x="244" y="136"/>
      <point x="259" y="70"/>
    </contour>
    <contour>
      <point x="48" y="348" type="line"/>
      <point x="107" y="349"/>
      <point x="174" y="350"/>
      <point x="209" y="350" type="curve"/>
      <point x="215" y="380" type="line"/>
      <point x="180" y="380"/>
      <point x="113" y="381"/>
      <point x="56" y="382" type="curve"/>
    </contour>
  </outline>
</glyph>
<glyph name="infinity" format="2">
  <advance width="898"/>
  <unicode hex="221E"/>
  <outline>
    <contour>
      <point x="646" y="86" type="curve" smooth="yes"/>
      <point x="755" y="86"/>
      <point x="819" y="162"/>
      <point x="843" y="278" type="curve" smooth="yes"/>
      <point x="866" y="387"/>
      <point x="815" y="504"/>
      <point x="691" y="504" type="curve" smooth="yes"/>
      <point x="618" y="504"/>
      <point x="531" y="426"/>
      <point x="450" y="309" type="curve"/>
      <point x="448" y="283" type="line"/>
      <point x="513" y="169"/>
      <point x="578" y="86"/>
    </contour>
    <contour>
      <point x="228" y="86" type="curve" smooth="yes"/>
      <point x="301" y="86"/>
      <point x="388" y="164"/>
      <point x="469" y="281" type="curve"/>
      <point x="470" y="307" type="line"/>
      <point x="407" y="420"/>
      <point x="342" y="504"/>
      <point x="273" y="504" type="curve" smooth="yes"/>
      <point x="164" y="504"/>
      <point x="100" y="428"/>
      <point x="76" y="312" type="curve" smooth="yes"/>
      <point x="53" y="203"/>
      <point x="104" y="86"/>
    </contour>
    <contour>
      <point x="229" y="117" type="curve"/>
      <point x="137" y="120"/>
      <point x="82" y="194"/>
      <point x="106" y="309" type="curve" smooth="yes"/>
      <point x="130" y="424"/>
      <point x="185" y="470"/>
      <point x="272" y="473" type="curve"/>
      <point x="327" y="473"/>
      <point x="383" y="401"/>
      <point x="443" y="295" type="curve"/>
      <point x="368" y="187"/>
      <point x="285" y="119"/>
    </contour>
    <contour>
      <point x="647" y="117" type="curve"/>
      <point x="593" y="117"/>
      <point x="536" y="189"/>
      <point x="476" y="295" type="curve"/>
      <point x="551" y="403"/>
      <point x="634" y="471"/>
      <point x="690" y="473" type="curve"/>
      <point x="782" y="470"/>
      <point x="837" y="396"/>
      <point x="813" y="281" type="curve" smooth="yes"/>
      <point x="789" y="166"/>
      <point x="734" y="120"/>
    </contour>
  </outline>
</glyph>
<glyph name="lessequal" format="2">
  <advance width="560"/>
  <unicode hex="2264"/>
  <outline>
    <contour>
      <point x="472" y="161" type="curve"/>
      <point x="480" y="197" type="line"/>
      <point x="409" y="231"/>
      <point x="329" y="269"/>
      <point x="256" y="304" type="curve"/>
      <point x="137" y="363" type="line"/>
      <point x="139" y="369" type="line"/>
      <point x="282" y="428" type="line"/>
      <point x="370" y="463"/>
      <point x="466" y="501"/>
      <point x="552" y="535" type="curve"/>
      <point x="560" y="577" type="line"/>
      <point x="497" y="550"/>
      <point x="436" y="524"/>
      <point x="383" y="502" type="curve"/>
      <point x="274" y="457" type="line"/>
      <point x="223" y="436"/>
      <point x="162" y="411"/>
      <point x="100" y="387" type="curve"/>
      <point x="92" y="351" type="line"/>
      <point x="144" y="327"/>
      <point x="195" y="302"/>
      <point x="236" y="281" type="curve"/>
      <point x="327" y="236" type="line"/>
      <point x="370" y="214"/>
      <point x="421" y="187"/>
    </contour>
    <contour>
      <point x="17" y="-2" type="line"/>
      <point x="75" y="-1"/>
      <point x="142" y="0"/>
      <point x="177" y="0" type="curve"/>
      <point x="277" y="0" type="line"/>
      <point x="312" y="0"/>
      <point x="379" y="-1"/>
      <point x="437" y="-2" type="curve"/>
      <point x="444" y="32" type="line"/>
      <point x="386" y="31"/>
      <point x="319" y="30"/>
      <point x="284" y="30" type="curve"/>
      <point x="184" y="30" type="line"/>
      <point x="149" y="30"/>
      <point x="82" y="31"/>
      <point x="24" y="32" type="curve"/>
    </contour>
  </outline>
</glyph>
<glyph name="lozenge" format="2">
  <advance width="590"/>
  <unicode hex="25CA"/>
  <outline>
    <contour>
      <point x="280" y="10" type="curve"/>
      <point x="332" y="10" type="line"/>
      <point x="399" y="106"/>
      <point x="466" y="201"/>
      <point x="533" y="297" type="curve"/>
      <point x="466" y="393"/>
      <point x="399" y="488"/>
      <point x="332" y="584" type="curve"/>
      <point x="280" y="584" type="line"/>
      <point x="213" y="488"/>
      <point x="146" y="393"/>
      <point x="79" y="297" type="curve"/>
      <point x="146" y="201"/>
      <point x="213" y="106"/>
    </contour>
    <contour>
      <point x="303" y="38" type="line"/>
      <point x="241" y="124"/>
      <point x="178" y="211"/>
      <point x="116" y="297" type="curve"/>
      <point x="178" y="383"/>
      <point x="241" y="470"/>
      <point x="303" y="556" type="curve"/>
      <point x="309" y="556" type="line"/>
      <point x="371" y="470"/>
      <point x="434" y="383"/>
      <point x="496" y="297" type="curve"/>
      <point x="434" y="211"/>
      <point x="371" y="124"/>
      <point x="309" y="38" type="curve"/>
    </contour>
  </outline>
</glyph>
<glyph name="_notequal" format="2">
  <advance width="560"/>
  <outline>
    <contour>
      <point x="185" y="35" type="line"/>
      <point x="211" y="92"/>
      <point x="241" y="156"/>
      <point x="257" y="190" type="curve"/>
      <point x="354" y="393" type="line"/>
      <point x="370" y="427"/>
      <point x="401" y="491"/>
      <point x="429" y="547" type="curve"/>
      <point x="396" y="555" type="line"/>
      <point x="370" y="499"/>
      <point x="340" y="435"/>
      <point x="324" y="400" type="curve"/>
      <point x="228" y="197" type="line"/>
      <point x="211" y="163"/>
      <point x="179" y="99"/>
      <point x="151" y="43" type="curve"/>
    </contour>
  </outline>
</glyph>
<glyph name="_slash.Lslash" format="2">
  <advance width="576"/>
  <anchor x="287" y="357" name="_center"/>
  <outline>
    <contour>
      <point x="20" y="292" type="line"/>
      <point x="85" y="311"/>
      <point x="145" y="328"/>
      <point x="199" y="344" type="curve"/>
      <point x="249" y="358" type="line"/>
      <point x="302" y="372"/>
      <point x="364" y="389"/>
      <point x="428" y="406" type="curve"/>
      <point x="425" y="440" type="line"/>
      <point x="360" y="421"/>
      <point x="301" y="404"/>
      <point x="246" y="388" type="curve"/>
      <point x="196" y="374" type="line"/>
      <point x="141" y="359"/>
      <point x="84" y="344"/>
      <point x="17" y="326" type="curve"/>
    </contour>
  </outline>
</glyph>
<glyph name="brevecomb.narrow" format="2">
  <anchor x="352" y="494" name="_top"/>
  <anchor x="391" y="683" name="top"/>
  <outline>
    <contour>
      <point x="380" y="585" type="curve" smooth="yes"/>
      <point x="462" y="585"/>
      <point x="510" y="648"/>
      <point x="534" y="758" type="curve"/>
      <point x="506" y="758" type="line"/>
      <point x="484" y="656"/>
      <point x="443" y="618"/>
      <point x="379" y="616" type="curve"/>
      <point x="315" y="618"/>
      <point x="282" y="656"/>
      <point x="303" y="759" type="curve"/>
      <point x="275" y="758" type="line"/>
      <point x="251" y="648"/>
      <point x="298" y="585"/>
    </contour>
  </outline>
</glyph>
<glyph name="brevecomb_tildecomb.case" format="2">
  <anchor x="350.234" y="494" name="_top"/>
  <outline>
    <contour>
      <point x="379" y="575" type="curve" smooth="yes"/>
      <point x="470" y="575"/>
      <point x="521" y="638"/>
      <point x="538" y="718" type="curve"/>
      <point x="509" y="718" type="line"/>
      <point x="494" y="646"/>
      <point x="450" y="608"/>
      <point x="378" y="606" type="curve"/>
      <point x="306" y="608"/>
      <point x="267" y="645"/>
      <point x="282" y="719" type="curve"/>
      <point x="253" y="718" type="line"/>
      <point x="236" y="638"/>
      <point x="289" y="575"/>
    </contour>
    <contour>
      <point x="494" y="767" type="curve" smooth="yes"/>
      <point x="546" y="767"/>
      <point x="581" y="806"/>
      <point x="593" y="878" type="curve"/>
      <point x="565" y="878" type="line"/>
      <point x="552" y="822"/>
      <point x="533" y="800"/>
      <point x="496" y="798" type="curve"/>
      <point x="436" y="800"/>
      <point x="415" y="891"/>
      <point x="343" y="891" type="curve" smooth="yes"/>
      <point x="291" y="891"/>
      <point x="257" y="852"/>
      <point x="244" y="780" type="curve"/>
      <point x="272" y="780" type="line"/>
      <point x="284" y="836"/>
      <point x="305" y="858"/>
      <point x="342" y="860" type="curve"/>
      <point x="401" y="858"/>
      <point x="422" y="767"/>
    </contour>
  </outline>
</glyph>
<glyph name="brevecomb_tildecomb" format="2">
  <anchor x="350.234" y="494" name="_top"/>
  <outline>
    <contour>
      <point x="381" y="585" type="curve" smooth="yes"/>
      <point x="472" y="585"/>
      <point x="523" y="648"/>
      <point x="547" y="758" type="curve"/>
      <point x="518" y="758" type="line"/>
      <point x="496" y="656"/>
      <point x="452" y="618"/>
      <point x="380" y="616" type="curve"/>
      <point x="308" y="618"/>
      <point x="269" y="655"/>
      <point x="291" y="759" type="curve"/>
      <point x="262" y="758" type="line"/>
      <point x="238" y="648"/>
      <point x="291" y="585"/>
    </contour>
    <contour>
      <point x="503" y="807" type="curve" smooth="yes"/>
      <point x="555" y="807"/>
      <point x="590" y="846"/>
      <point x="602" y="918" type="curve"/>
      <point x="574" y="918" type="line"/>
      <point x="561" y="862"/>
      <point x="542" y="840"/>
      <point x="505" y="838" type="curve"/>
      <point x="445" y="840"/>
      <point x="424" y="931"/>
      <point x="352" y="931" type="curve" smooth="yes"/>
      <point x="300" y="931"/>
      <point x="266" y="892"/>
      <point x="253" y="820" type="curve"/>
      <point x="281" y="820" type="line"/>
      <point x="293" y="876"/>
      <point x="314" y="898"/>
      <point x="351" y="900" type="curve"/>
      <point x="410" y="898"/>
      <point x="431" y="807"/>
    </contour>
  </outline>
</glyph>
<glyph name="caroncomb.alt" format="2">
  <anchor x="352" y="494" name="_topright"/>
  <outline>
    <contour>
      <point x="397" y="543" type="curve"/>
      <point x="427" y="544" type="line"/>
      <point x="453" y="598"/>
      <point x="501" y="701"/>
      <point x="508" y="733" type="curve" smooth="yes"/>
      <point x="513" y="755"/>
      <point x="512" y="765"/>
      <point x="497" y="766" type="curve"/>
      <point x="480" y="765" type="line"/>
      <point x="476" y="742"/>
      <point x="472" y="721"/>
      <point x="467" y="698" type="curve"/>
      <point x="452" y="664"/>
      <point x="421" y="595"/>
    </contour>
  </outline>
</glyph>
<glyph name="cedi.BRACKET.140" format="2">
  <advance width="656"/>
  <outline>
    <contour>
      <point x="363" y="-9" type="curve" smooth="yes"/>
      <point x="408" y="-9"/>
      <point x="498" y="18"/>
      <point x="555" y="39" type="curve"/>
      <point x="557" y="81" type="line"/>
      <point x="487" y="47"/>
      <point x="393" y="23"/>
      <point x="362" y="23" type="curve"/>
      <point x="156" y="25"/>
      <point x="79" y="196"/>
      <point x="117" y="377" type="curve" smooth="yes"/>
      <point x="158" y="571"/>
      <point x="288" y="662"/>
      <point x="464" y="664" type="curve"/>
      <point x="491" y="664"/>
      <point x="584" y="635"/>
      <point x="674" y="600" type="curve"/>
      <point x="686" y="633" type="line"/>
      <point x="630" y="653"/>
      <point x="512" y="696"/>
      <point x="466" y="696" type="curve" smooth="yes"/>
      <point x="276" y="696"/>
      <point x="130" y="590"/>
      <point x="86" y="383" type="curve" smooth="yes"/>
      <point x="44" y="183"/>
      <point x="139" y="-9"/>
    </contour>
    <contour>
      <point x="272" y="-137" type="curve"/>
      <point x="306" y="-137" type="line"/>
      <point x="316" y="-88"/>
      <point x="327" y="-38"/>
      <point x="336" y="9" type="curve"/>
      <point x="304" y="9" type="line"/>
      <point x="294" y="-38"/>
      <point x="283" y="-88"/>
    </contour>
    <contour>
      <point x="446" y="675" type="curve"/>
      <point x="478" y="675" type="line"/>
      <point x="487" y="717"/>
      <point x="497" y="760"/>
      <point x="506" y="803" type="curve"/>
      <point x="472" y="803" type="line"/>
      <point x="463" y="760"/>
      <point x="454" y="717"/>
    </contour>
  </outline>
</glyph>
<glyph name="cent.BRACKET.140" format="2">
  <advance width="502"/>
  <anchor x="238" y="0" name="bottom"/>
  <anchor x="333" y="494" name="top"/>
  <outline>
    <contour>
      <point x="179" y="-137" type="curve"/>
      <point x="212" y="-137" type="line"/>
      <point x="222" y="-88"/>
      <point x="233" y="-35"/>
      <point x="242" y="9" type="curve"/>
      <point x="211" y="9" type="line"/>
      <point x="201" y="-37"/>
      <point x="190" y="-87"/>
    </contour>
    <contour>
      <point x="312" y="482" type="curve"/>
      <point x="343" y="482" type="line"/>
      <point x="353" y="527"/>
      <point x="364" y="577"/>
      <point x="374" y="623" type="curve"/>
      <point x="341" y="623" type="line"/>
      <point x="331" y="574"/>
      <point x="321" y="526"/>
    </contour>
    <contour>
      <point x="277" y="-9" type="curve" smooth="yes"/>
      <point x="313" y="-9"/>
      <point x="376" y="12"/>
      <point x="403" y="23" type="curve"/>
      <point x="403" y="62" type="line"/>
      <point x="366" y="43"/>
      <point x="304" y="24"/>
      <point x="277" y="23" type="curve"/>
      <point x="140" y="25"/>
      <point x="65" y="116"/>
      <point x="97" y="267" type="curve" smooth="yes"/>
      <point x="125" y="398"/>
      <point x="216" y="467"/>
      <point x="328" y="472" type="curve"/>
      <point x="346" y="472"/>
      <point x="413" y="451"/>
      <point x="477" y="424" type="curve"/>
      <point x="488" y="458" type="line"/>
      <point x="448" y="473"/>
      <point x="362" y="504"/>
      <point x="329" y="504" type="curve" smooth="yes"/>
      <point x="199" y="504"/>
      <point x="94" y="409"/>
      <point x="66" y="273" type="curve" smooth="yes"/>
      <point x="33" y="111"/>
      <point x="116" y="-9"/>
    </contour>
  </outline>
</glyph>
<glyph name="circumflexcomb_acutecomb.case" format="2">
  <anchor x="352" y="494" name="_top"/>
  <outline>
    <contour>
      <point x="494" y="710" type="curve"/>
      <point x="531" y="711" type="line"/>
      <point x="596" y="769"/>
      <point x="659" y="826"/>
      <point x="723" y="885" type="curve"/>
      <point x="677" y="885" type="line"/>
      <point x="616" y="826"/>
      <point x="556" y="770"/>
    </contour>
    <contour>
      <point x="203" y="577" type="curve"/>
      <point x="240" y="577" type="line"/>
      <point x="305" y="635"/>
      <point x="366" y="690"/>
      <point x="426" y="750" type="curve"/>
      <point x="381" y="750" type="line"/>
      <point x="322" y="692"/>
      <point x="263" y="636"/>
    </contour>
    <contour>
      <point x="503" y="575" type="curve"/>
      <point x="533" y="576" type="line"/>
      <point x="498" y="633"/>
      <point x="461" y="693"/>
      <point x="426" y="750" type="curve"/>
      <point x="387" y="750" type="line"/>
      <point x="424" y="690"/>
      <point x="464" y="633"/>
    </contour>
  </outline>
</glyph>
<glyph name="circumflexcomb_acutecomb" format="2">
  <anchor x="350.234" y="494" name="_top"/>
  <outline>
    <contour>
      <point x="503" y="740" type="curve"/>
      <point x="540" y="741" type="line"/>
      <point x="606" y="805"/>
      <point x="669" y="868"/>
      <point x="732" y="933" type="curve"/>
      <point x="683" y="932" type="line"/>
      <point x="623" y="869"/>
      <point x="564" y="805"/>
    </contour>
    <contour>
      <point x="205" y="587" type="curve"/>
      <point x="242" y="587" type="line"/>
      <point x="308" y="651"/>
      <point x="369" y="712"/>
      <point x="430" y="777" type="curve"/>
      <point x="385" y="777" type="line"/>
      <point x="325" y="713"/>
      <point x="266" y="652"/>
    </contour>
    <contour>
      <point x="505" y="585" type="curve"/>
      <point x="535" y="586" type="line"/>
      <point x="500" y="649"/>
      <point x="465" y="714"/>
      <point x="430" y="777" type="curve"/>
      <point x="391" y="777" type="line"/>
      <point x="427" y="712"/>
      <point x="467" y="649"/>
    </contour>
  </outline>
</glyph>
<glyph name="circumflexcomb_hookabovecomb" format="2">
  <anchor x="350" y="494" name="_top"/>
  <outline>
    <contour>
      <point x="505" y="585" type="curve"/>
      <point x="535" y="586" type="line"/>
      <point x="500" y="649"/>
      <point x="465" y="714"/>
      <point x="430" y="777" type="curve"/>
      <point x="391" y="777" type="line"/>
      <point x="427" y="712"/>
      <point x="467" y="649"/>
    </contour>
    <contour>
      <point x="205" y="587" type="curve"/>
      <point x="242" y="587" type="line"/>
      <point x="308" y="651"/>
      <point x="369" y="712"/>
      <point x="430" y="777" type="curve"/>
      <point x="385" y="777" type="line"/>
      <point x="325" y="713"/>
      <point x="266" y="652"/>
    </contour>
    <contour>
      <point x="527" y="740" type="line"/>
      <point x="557" y="740" type="line"/>
      <point x="565" y="775" type="line"/>
      <point x="610" y="790"/>
      <point x="658" y="812"/>
      <point x="670" y="865" type="curve" smooth="yes"/>
      <point x="681" y="915"/>
      <point x="645" y="950"/>
      <point x="594" y="950" type="curve" smooth="yes"/>
      <point x="576" y="950"/>
      <point x="525" y="935"/>
      <point x="499" y="927" type="curve"/>
      <point x="494" y="893" type="line"/>
      <point x="538" y="907"/>
      <point x="581" y="919"/>
      <point x="591" y="919" type="curve"/>
      <point x="627" y="918"/>
      <point x="648" y="902"/>
      <point x="641" y="869" type="curve" smooth="yes"/>
      <point x="634" y="835"/>
      <point x="598" y="810"/>
      <point x="538" y="793" type="curve"/>
    </contour>
  </outline>
</glyph>
<glyph name="circumflexcomb_tildecomb.case" format="2">
  <anchor x="352" y="494" name="_top"/>
  <outline>
    <contour>
      <point x="203" y="577" type="curve"/>
      <point x="240" y="577" type="line"/>
      <point x="305" y="635"/>
      <point x="366" y="690"/>
      <point x="426" y="750" type="curve"/>
      <point x="381" y="750" type="line"/>
      <point x="322" y="692"/>
      <point x="263" y="636"/>
    </contour>
    <contour>
      <point x="503" y="575" type="curve"/>
      <point x="533" y="576" type="line"/>
      <point x="498" y="633"/>
      <point x="461" y="693"/>
      <point x="426" y="750" type="curve"/>
      <point x="387" y="750" type="line"/>
      <point x="424" y="690"/>
      <point x="464" y="633"/>
    </contour>
    <contour>
      <point x="495" y="777" type="curve" smooth="yes"/>
      <point x="547" y="777"/>
      <point x="582" y="816"/>
      <point x="594" y="888" type="curve"/>
      <point x="566" y="888" type="line"/>
      <point x="553" y="832"/>
      <point x="534" y="810"/>
      <point x="497" y="808" type="curve"/>
      <point x="437" y="810"/>
      <point x="416" y="901"/>
      <point x="344" y="901" type="curve" smooth="yes"/>
      <point x="292" y="901"/>
      <point x="258" y="862"/>
      <point x="245" y="790" type="curve"/>
      <point x="273" y="790" type="line"/>
      <point x="285" y="846"/>
      <point x="306" y="868"/>
      <point x="343" y="870" type="curve"/>
      <point x="402" y="868"/>
      <point x="423" y="777"/>
    </contour>
  </outline>
</glyph>
<glyph name="five.dnom" format="2">
  <advance width="407"/>
  <outline>
    <contour>
      <point x="152" y="-6" type="curve" smooth="yes"/>
      <point x="251" y="-6"/>
      <point x="317" y="35"/>
      <point x="337" y="129" type="curve" smooth="yes"/>
      <point x="358" y="228"/>
      <point x="291" y="293"/>
      <point x="207" y="293" type="curve" smooth="yes"/>
      <point x="173" y="293"/>
      <point x="136" y="279"/>
      <point x="107" y="267" type="curve"/>
      <point x="103" y="267" type="line"/>
      <point x="110" y="301" type="line"/>
      <point x="122" y="355"/>
      <point x="131" y="396"/>
      <point x="141" y="442" type="curve"/>
      <point x="126" y="430" type="line"/>
      <point x="198" y="430" type="line"/>
      <point x="254" y="430"/>
      <point x="313" y="429"/>
      <point x="370" y="428" type="curve"/>
      <point x="376" y="459" type="line"/>
      <point x="112" y="459" type="line"/>
      <point x="102" y="407"/>
      <point x="94" y="367"/>
      <point x="80" y="297" type="curve"/>
      <point x="65" y="228" type="line"/>
      <point x="80" y="227" type="line"/>
      <point x="125" y="250"/>
      <point x="172" y="263"/>
      <point x="200" y="263" type="curve"/>
      <point x="269" y="262"/>
      <point x="324" y="220"/>
      <point x="307" y="136" type="curve" smooth="yes"/>
      <point x="291" y="56"/>
      <point x="239" y="25"/>
      <point x="151" y="24" type="curve"/>
      <point x="117" y="24"/>
      <point x="64" y="45"/>
      <point x="5" y="72" type="curve"/>
      <point x="-7" y="40" type="line"/>
      <point x="51" y="17"/>
      <point x="116" y="-6"/>
    </contour>
  </outline>
</glyph>
<glyph name="four.dnom" format="2">
  <advance width="421"/>
  <outline>
    <contour>
      <point x="214" y="0" type="curve"/>
      <point x="248" y="0" type="line"/>
      <point x="256" y="41"/>
      <point x="262" y="73"/>
      <point x="272" y="124" type="curve"/>
      <point x="309" y="298" type="line"/>
      <point x="321" y="350"/>
      <point x="333" y="403"/>
      <point x="346" y="459" type="curve"/>
      <point x="306" y="459" type="line"/>
      <point x="278" y="428"/>
      <point x="249" y="396"/>
      <point x="221" y="365" type="curve"/>
      <point x="140" y="279" type="line"/>
      <point x="98" y="235"/>
      <point x="36" y="171"/>
      <point x="3" y="137" type="curve"/>
      <point x="-2" y="111" type="line"/>
      <point x="256" y="111" type="line"/>
      <point x="290" y="111"/>
      <point x="339" y="109"/>
      <point x="370" y="109" type="curve"/>
      <point x="377" y="142" type="line"/>
      <point x="346" y="142"/>
      <point x="297" y="140"/>
      <point x="263" y="140" type="curve"/>
      <point x="254" y="140" type="line"/>
      <point x="32" y="140" type="line"/>
      <point x="38" y="126" type="line"/>
      <point x="67" y="158"/>
      <point x="92" y="186"/>
      <point x="123" y="221" type="curve"/>
      <point x="235" y="340" type="line"/>
      <point x="271" y="377"/>
      <point x="305" y="412"/>
      <point x="337" y="445" type="curve"/>
      <point x="308" y="440" type="line"/>
      <point x="299" y="394"/>
      <point x="288" y="342"/>
      <point x="278" y="291" type="curve"/>
      <point x="244" y="132" type="line"/>
      <point x="242" y="124" type="line"/>
      <point x="231" y="75"/>
      <point x="223" y="41"/>
    </contour>
  </outline>
</glyph>
<glyph name="guarani.BRACKET.140" format="2">
  <advance width="706"/>
  <outline>
    <contour>
      <point x="376" y="-9" type="curve" smooth="yes"/>
      <point x="423" y="-9"/>
      <point x="522" y="15"/>
      <point x="582" y="35" type="curve"/>
      <point x="579" y="72" type="line"/>
      <point x="507" y="43"/>
      <point x="409" y="23"/>
      <point x="377" y="23" type="curve"/>
      <point x="149" y="25"/>
      <point x="79" y="196"/>
      <point x="117" y="377" type="curve" smooth="yes"/>
      <point x="159" y="575"/>
      <point x="286" y="662"/>
      <point x="459" y="664" type="curve"/>
      <point x="488" y="664"/>
      <point x="586" y="633"/>
      <point x="681" y="595" type="curve"/>
      <point x="693" y="628" type="line"/>
      <point x="633" y="650"/>
      <point x="507" y="696"/>
      <point x="458" y="696" type="curve" smooth="yes"/>
      <point x="267" y="696"/>
      <point x="129" y="586"/>
      <point x="86" y="383" type="curve" smooth="yes"/>
      <point x="44" y="183"/>
      <point x="134" y="-9"/>
    </contour>
    <contour>
      <point x="547" y="35" type="curve"/>
      <point x="582" y="35" type="line"/>
      <point x="595" y="99"/>
      <point x="603" y="138"/>
      <point x="614" y="192" type="curve"/>
      <point x="627" y="247"/>
      <point x="636" y="285"/>
      <point x="648" y="335" type="curve"/>
      <point x="612" y="335" type="line"/>
      <point x="602" y="286"/>
      <point x="594" y="246"/>
      <point x="583" y="192" type="curve"/>
      <point x="570" y="135"/>
      <point x="562" y="100"/>
    </contour>
    <contour>
      <point x="274" y="-137" type="curve"/>
      <point x="308" y="-137" type="line"/>
      <point x="318" y="-88"/>
      <point x="329" y="-38"/>
      <point x="338" y="9" type="curve"/>
      <point x="306" y="9" type="line"/>
      <point x="296" y="-38"/>
      <point x="285" y="-88"/>
    </contour>
    <contour>
      <point x="448" y="675" type="curve"/>
      <point x="480" y="675" type="line"/>
      <point x="489" y="717"/>
      <point x="499" y="760"/>
      <point x="508" y="803" type="curve"/>
      <point x="474" y="803" type="line"/>
      <point x="465" y="760"/>
      <point x="456" y="717"/>
    </contour>
  </outline>
</glyph>
<glyph name="one.dnom" format="2">
  <advance width="303"/>
  <outline>
    <contour>
      <point x="56" y="342" type="line"/>
      <point x="122" y="374"/>
      <point x="179" y="402"/>
      <point x="231" y="427" type="curve"/>
      <point x="237" y="460" type="line"/>
      <point x="175" y="431"/>
      <point x="114" y="402"/>
      <point x="54" y="374" type="curve"/>
    </contour>
    <contour>
      <point x="124" y="0" type="curve"/>
      <point x="158" y="0" type="line"/>
      <point x="167" y="46"/>
      <point x="176" y="91"/>
      <point x="187" y="147" type="curve"/>
      <point x="219" y="298" type="line"/>
      <point x="232" y="355"/>
      <point x="244" y="410"/>
      <point x="255" y="459" type="curve"/>
      <point x="236" y="460" type="line"/>
      <point x="218" y="444" type="line"/>
      <point x="208" y="395"/>
      <point x="198" y="345"/>
      <point x="188" y="296" type="curve"/>
      <point x="157" y="148" type="line"/>
      <point x="144" y="90"/>
      <point x="135" y="49"/>
    </contour>
  </outline>
</glyph>
